<svg width="805" height="69" viewBox="0 0 805 69" fill="none" xmlns="http://www.w3.org/2000/svg">
<g clip-path="url(#clip0_211_2045)">
<path fill-rule="evenodd" clip-rule="evenodd" d="M9.97907 20.8497C13.8233 20.8497 16.9398 23.9661 16.9398 27.8104V20.8497H23.9005C27.7447 20.8497 30.8612 23.9661 30.8612 27.8104C30.8612 31.6546 27.7447 34.7711 23.9005 34.7711C27.7447 34.7711 30.8612 37.8875 30.8612 41.7318C30.8612 43.6406 30.0928 45.37 28.8485 46.6275L28.8224 46.6537L28.7993 46.6767C27.5415 47.9228 25.8109 48.6924 23.9005 48.6924C22.003 48.6924 20.2829 47.9332 19.0273 46.702C19.011 46.686 18.9947 46.6699 18.9785 46.6537C18.9632 46.6385 18.9481 46.6232 18.933 46.6078C17.7001 45.3519 16.9398 43.6306 16.9398 41.7318C16.9398 45.576 13.8233 48.6924 9.97907 48.6924C6.13478 48.6924 3.01837 45.576 3.01837 41.7318V34.7711H9.97907C6.13478 34.7711 3.01837 31.6546 3.01837 27.8104C3.01837 23.9661 6.13478 20.8497 9.97907 20.8497ZM15.5476 27.8104C15.5476 30.8858 13.0545 33.3789 9.97907 33.3789V22.2418C13.0545 22.2418 15.5476 24.7349 15.5476 27.8104ZM29.469 41.7318C29.469 38.6563 26.9759 36.1632 23.9005 36.1632C20.825 36.1632 18.3319 38.6563 18.3319 41.7318H29.469ZM4.41051 36.1632V41.7318C4.41051 44.8072 6.90364 47.3003 9.97907 47.3003C13.0545 47.3003 15.5476 44.8072 15.5476 41.7318V36.1632H4.41051ZM18.3319 33.3789V22.2418H23.9005C26.9759 22.2418 29.469 24.7349 29.469 27.8104C29.469 30.8858 26.9759 33.3789 23.9005 33.3789H18.3319Z" fill="#263238"/>
</g>
<g clip-path="url(#clip1_211_2045)">
<path fill-rule="evenodd" clip-rule="evenodd" d="M138.046 27.7836L131.095 34.6645C132.485 36.0408 134.074 37.2007 135.805 38.1082C136.284 39.365 137.034 40.5437 138.056 41.5552C141.9 45.3608 148.133 45.3608 151.977 41.5552C152.999 40.5437 153.749 39.365 154.228 38.1081C155.959 37.2007 157.548 36.0408 158.938 34.6645L151.993 27.7892C151.988 27.784 151.982 27.7789 151.977 27.7737C148.133 23.9681 141.9 23.9681 138.056 27.7737C138.052 27.777 138.049 27.7803 138.046 27.7836ZM151.312 39.3496C149.287 40.0264 147.16 40.3729 145.016 40.3729C142.873 40.3729 140.747 40.0264 138.721 39.3496C138.94 39.6379 139.183 39.9145 139.448 40.1771C142.523 43.2216 147.51 43.2216 150.585 40.1771C150.85 39.9145 151.093 39.6379 151.312 39.3496ZM139.591 29.0141C140.113 29.3556 140.668 29.6479 141.249 29.8862C142.444 30.3759 143.724 30.628 145.016 30.628C146.309 30.628 147.589 30.3759 148.784 29.8862C149.365 29.6479 149.92 29.3556 150.442 29.014C147.405 26.1533 142.628 26.1533 139.591 29.0141Z" fill="#3B4158"/>
</g>
<g clip-path="url(#clip2_211_2045)">
<path d="M292.58 31.6502C292.584 31.6212 292.584 31.5918 292.58 31.5628C292.584 31.5392 292.584 31.515 292.58 31.4913L292.297 29.45C292.256 29.2058 292.146 28.9775 291.981 28.7908L291.932 28.7352L291.843 28.6478L286.933 24.5016L287.071 24.6366C286.958 24.5045 286.817 24.3987 286.657 24.3273C286.497 24.2558 286.323 24.2204 286.147 24.2236H284.656C284.414 24.2189 284.177 24.2944 283.984 24.4381C283.781 24.2953 283.537 24.2201 283.287 24.2236H281.796C281.601 24.2205 281.408 24.2681 281.237 24.3615C281.067 24.455 280.924 24.591 280.824 24.7558C280.67 24.9911 280.612 25.2747 280.662 25.5501L280.849 26.8368C280.725 26.7682 280.585 26.7326 280.443 26.7336H273.225C272.966 26.7351 272.713 26.8096 272.495 26.948C272.285 27.0769 272.117 27.2614 272.009 27.4802L271.45 27.0115C271.23 26.812 270.94 26.7038 270.64 26.7097H259.314C259.054 26.7144 258.799 26.7856 258.576 26.9162C258.271 27.0914 258.047 27.3763 257.952 27.7105L254.355 39.5057C254.288 39.7001 254.281 39.9097 254.336 40.1078C254.391 40.3058 254.505 40.4834 254.663 40.6178C254.704 40.652 254.748 40.6838 254.793 40.713C254.793 40.713 254.72 40.6654 254.679 40.6257L259.589 44.7798C259.797 44.9673 260.068 45.0721 260.351 45.0737H271.766C272.027 45.067 272.281 44.9931 272.504 44.8592C272.629 44.7919 272.742 44.7031 272.836 44.5971L272.876 44.5415L272.941 44.4621L272.99 44.3747L273.524 44.8275C273.729 45.0075 273.995 45.1065 274.27 45.1055H285.71C285.97 45.097 286.224 45.0231 286.447 44.891C286.57 44.8195 286.682 44.7313 286.779 44.6289L286.82 44.5733L286.884 44.4939C286.919 44.4436 286.949 44.3905 286.974 44.335C287 44.2868 287.022 44.2363 287.038 44.1841L290.32 33.4135V33.3182C290.324 33.2813 290.324 33.244 290.32 33.207V33.1355C290.324 33.1118 290.324 33.0877 290.32 33.064C290.323 33.0138 290.323 32.9634 290.32 32.9131H291.373C291.465 32.9214 291.557 32.9214 291.648 32.9131H291.721C291.781 32.8958 291.838 32.8718 291.892 32.8416H291.973L292.118 32.7304L292.183 32.6828L292.297 32.5398V32.4922L292.378 32.3571C292.373 32.3309 292.373 32.304 292.378 32.2777C292.373 32.2648 292.373 32.2509 292.378 32.238C292.395 32.1914 292.408 32.1436 292.418 32.095C292.414 32.0793 292.414 32.063 292.418 32.0473C292.414 32.0237 292.414 31.9995 292.418 31.9759C292.418 31.9759 292.58 31.6661 292.58 31.6502Z" fill="black"/>
<path d="M270.972 27.6152C271.015 27.6534 271.045 27.7035 271.058 27.7589C271.071 27.8143 271.067 27.8723 271.045 27.925L267.456 39.7123C267.411 39.841 267.318 39.9486 267.197 40.0141C267.098 40.079 266.983 40.1173 266.865 40.1253H255.457C255.36 40.1207 255.267 40.0812 255.198 40.0141C255.156 39.9766 255.127 39.9278 255.114 39.8741C255.101 39.8203 255.105 39.764 255.125 39.7123L258.722 27.925C258.764 27.7947 258.853 27.6842 258.973 27.6152C259.074 27.555 259.188 27.5196 259.305 27.512H270.713C270.81 27.5129 270.902 27.5498 270.972 27.6152ZM265.017 37.3374L267.164 30.2999H261.153L259.014 37.3374H265.017ZM281.861 27.7344C281.9 27.7787 281.949 27.8139 282.004 27.8373C282.058 27.8606 282.118 27.8716 282.177 27.8694H283.66C283.716 27.87 283.772 27.8564 283.822 27.83C283.871 27.8036 283.913 27.7652 283.944 27.7185C283.97 27.682 283.988 27.6407 283.998 27.5971C284.008 27.5534 284.009 27.5083 284 27.4643L283.709 25.3674C283.681 25.2704 283.631 25.1807 283.563 25.1053C283.524 25.0609 283.475 25.0258 283.42 25.0024C283.366 24.979 283.306 24.968 283.247 24.9703H281.764C281.708 24.9697 281.652 24.9833 281.602 25.0097C281.553 25.0361 281.511 25.0745 281.481 25.1212C281.424 25.2324 281.4 25.3039 281.424 25.3674L281.724 27.4643C281.739 27.5664 281.787 27.661 281.861 27.7344ZM286.569 25.3515C286.541 25.2545 286.491 25.1648 286.423 25.0894C286.385 25.0452 286.338 25.0101 286.285 24.9866C286.231 24.9632 286.173 24.9522 286.115 24.9544H284.624C284.569 24.9528 284.514 24.966 284.465 24.9926C284.417 25.0192 284.376 25.0581 284.349 25.1053C284.295 25.1758 284.271 25.2643 284.284 25.3515L284.584 27.4484C284.602 27.5495 284.65 27.6431 284.721 27.7185C284.761 27.762 284.81 27.7966 284.864 27.8199C284.919 27.8432 284.978 27.8546 285.037 27.8535H286.528C286.583 27.8542 286.638 27.8407 286.686 27.8142C286.735 27.7877 286.775 27.7492 286.804 27.7026C286.832 27.6671 286.851 27.6258 286.861 27.5818C286.871 27.5378 286.871 27.4923 286.86 27.4484L286.569 25.3515ZM280.557 28.5287L280.411 27.4961H273.225C273.112 27.5022 273.003 27.5379 272.909 27.5994C272.849 27.6313 272.797 27.6755 272.756 27.729C272.716 27.7824 272.688 27.8439 272.674 27.9091L272.074 29.879C272.05 29.9282 272.042 29.9834 272.051 30.0373C272.059 30.0912 272.085 30.1412 272.123 30.1808C272.191 30.2438 272.28 30.2805 272.374 30.2841H281.108L278.961 37.3215H270.251C270.139 37.324 270.03 37.357 269.935 37.4168C269.821 37.4881 269.737 37.5984 269.7 37.7265L269.093 39.6964C269.073 39.7469 269.068 39.8019 269.078 39.8551C269.088 39.9084 269.112 39.9579 269.149 39.9982C269.216 40.0654 269.305 40.1052 269.401 40.1094H280.84C280.959 40.0994 281.073 40.0613 281.173 39.9982C281.292 39.9323 281.382 39.8245 281.424 39.6964L284.713 28.9258H281.011C280.952 28.927 280.894 28.9163 280.839 28.8944C280.785 28.8725 280.736 28.84 280.695 28.7987C280.628 28.7267 280.58 28.6393 280.557 28.5446V28.5287Z" fill="white"/>
</g>
<g clip-path="url(#clip3_211_2045)">
<path d="M415.785 27.4008C415.785 27.4243 415.785 27.4537 415.779 27.4714C415.748 27.7008 415.748 27.9303 415.767 28.1657C415.779 28.2245 415.791 28.2834 415.84 28.3305C415.92 28.4187 416.043 28.4011 416.092 28.2952C416.116 28.2422 416.116 28.1892 416.104 28.1363C416.043 27.9127 416.03 27.6773 416.024 27.4478C416.024 27.4361 416.024 27.4184 416.024 27.4008C416.092 27.3949 416.153 27.389 416.208 27.389C416.251 27.3831 416.288 27.3772 416.319 27.3596C416.41 27.3125 416.41 27.2125 416.312 27.1654C416.276 27.1477 416.227 27.1418 416.184 27.1418C416.03 27.1477 415.877 27.1477 415.724 27.1477C415.669 27.1477 415.613 27.1536 415.558 27.1595C415.528 27.1654 415.491 27.1654 415.466 27.183C415.423 27.2007 415.399 27.2301 415.399 27.2713C415.405 27.3125 415.423 27.336 415.466 27.3537C415.491 27.3713 415.522 27.3772 415.552 27.3772C415.626 27.3831 415.705 27.3949 415.785 27.4008ZM417.471 27.6714C417.471 27.6773 417.477 27.6832 417.477 27.6832C417.502 27.8421 417.526 27.9951 417.545 28.148C417.551 28.201 417.557 28.2481 417.594 28.2893C417.673 28.3893 417.796 28.3775 417.851 28.2716C417.876 28.2187 417.882 28.1657 417.87 28.1069C417.833 27.9303 417.814 27.7538 417.778 27.5832C417.753 27.4772 417.723 27.3772 417.692 27.2831C417.673 27.2242 417.631 27.183 417.557 27.1772C417.483 27.1654 417.428 27.2007 417.398 27.2536C417.361 27.3007 417.33 27.3478 417.306 27.4008C417.263 27.4949 417.226 27.589 417.177 27.6773C417.171 27.7008 417.165 27.7185 417.152 27.7361C417.146 27.7244 417.14 27.7185 417.14 27.7185C417.06 27.5714 416.987 27.4243 416.907 27.2831C416.895 27.2713 416.889 27.2595 416.883 27.2478C416.846 27.1948 416.803 27.1654 416.735 27.1654C416.674 27.1713 416.625 27.2066 416.594 27.2595C416.582 27.2831 416.582 27.3007 416.576 27.3243C416.551 27.5126 416.521 27.7008 416.496 27.8891C416.484 27.9951 416.478 28.101 416.478 28.2069C416.472 28.2304 416.478 28.2598 416.49 28.2834C416.502 28.3305 416.539 28.3599 416.588 28.3658C416.65 28.3716 416.692 28.354 416.711 28.3069C416.729 28.2716 416.735 28.2422 416.742 28.2128C416.766 28.1069 416.784 28.0068 416.803 27.9068C416.815 27.848 416.821 27.8009 416.84 27.7361C416.852 27.7597 416.864 27.7773 416.876 27.795C416.932 27.8656 416.987 27.9362 417.054 27.9951C417.122 28.0421 417.177 28.0362 417.232 27.9833C417.244 27.9715 417.25 27.9656 417.263 27.9539C417.318 27.8715 417.385 27.7891 417.44 27.7067C417.453 27.695 417.459 27.6832 417.471 27.6714Z" fill="#3A3B7B"/>
<path d="M403.345 27.5164C403.302 27.6282 403.294 27.7087 403.314 27.7757C403.336 27.8668 403.392 27.8966 403.469 27.8734C404.189 27.7025 405.768 28.1876 406.352 28.3228C406.49 28.3512 406.602 28.1804 406.508 28.0272C406.371 27.8789 404.793 27.2439 404.19 27.2093C403.954 27.1965 403.532 27.1384 403.345 27.5164Z" fill="#3A3B7B"/>
<path d="M409.516 25.4607C409.593 25.5032 409.636 25.5438 409.657 25.5891C409.689 25.6485 409.672 25.6897 409.619 25.7107C409.143 25.9336 408.509 26.8936 408.254 27.2246C408.192 27.3008 408.049 27.2565 408.027 27.1313C408.032 26.9897 408.593 25.9479 408.907 25.6642C409.03 25.5534 409.233 25.3361 409.516 25.4607Z" fill="#3A3B7B"/>
<path d="M405.725 24.9882C405.818 24.9215 405.913 24.8981 405.962 24.9415C406.681 25.531 407.061 26.4645 407.297 27.3191C407.306 27.339 407.307 27.3676 407.3 27.3974C407.297 27.4229 407.277 27.4498 407.246 27.4706C407.214 27.4936 407.185 27.5006 407.172 27.4808C406.857 27.0699 405.059 25.4711 405.725 24.9882Z" fill="#3A3B7B"/>
<path d="M390.517 35.2087C390.689 35.0857 390.876 34.9833 391.074 34.9038C391.281 34.847 391.502 34.8564 391.703 34.9307C391.904 35.005 392.075 35.1401 392.189 35.3156C392.291 35.4907 392.331 35.6928 392.302 35.8916C392.274 36.0903 392.18 36.2748 392.033 36.4175C391.919 36.5331 391.789 36.6338 391.648 36.717C391.018 37.1075 390.383 37.4765 389.748 37.867C389.618 37.9647 389.48 38.0524 389.335 38.1291C389.116 38.2343 388.864 38.2624 388.625 38.2087C388.386 38.155 388.174 38.0228 388.026 37.8349C387.915 37.7019 387.821 37.5564 387.747 37.4016C387.145 36.1875 386.521 34.9787 385.942 33.7431C385.674 33.2083 385.457 32.5931 385.245 31.9994C385.153 31.8269 385.135 31.627 385.195 31.442C385.255 31.257 385.387 31.1017 385.564 31.009C385.741 30.9163 385.949 30.8937 386.144 30.9458C386.338 30.9979 386.503 31.1207 386.605 31.2881C386.916 31.6856 387.192 32.1079 387.43 32.5504C388.031 33.6201 388.605 34.6898 389.185 35.7275C389.219 35.7848 389.256 35.8402 389.296 35.8933C389.733 35.7173 390.143 35.4871 390.517 35.2087Z" fill="#3A3B7B"/>
<path d="M396.74 34.8355C395.363 36.3813 393.056 35.9908 391.897 34.0011C391.072 32.589 390.927 30.257 392.722 28.7861C393.105 28.4782 393.563 28.2684 394.054 28.1764C394.655 28.0936 395.268 28.1954 395.806 28.4673C396.343 28.7392 396.778 29.1671 397.046 29.6901C398.027 31.4016 397.888 33.5839 396.74 34.8355ZM396.183 31.2305C396.036 30.8099 395.743 30.4508 395.352 30.2142C395.131 30.0629 394.862 29.9894 394.591 30.006C394.32 30.0225 394.064 30.1282 393.864 30.3051C393.067 30.9844 392.9 32.5944 393.48 33.5518C393.554 33.7079 393.662 33.8467 393.798 33.9583C393.933 34.07 394.093 34.1519 394.265 34.1982C394.437 34.2446 394.617 34.2543 394.793 34.2268C394.97 34.1992 395.138 34.1349 395.285 34.0385C395.717 33.7171 396.034 33.2744 396.192 32.7722C396.35 32.2699 396.341 31.7329 396.166 31.2358L396.183 31.2305Z" fill="#3A3B7B"/>
<path d="M402.357 31.9044C402.216 31.9335 402.071 31.9352 401.929 31.9095C401.787 31.8838 401.653 31.8311 401.532 31.7547C401.427 31.6969 401.337 31.6176 401.268 31.5223C401.198 31.4271 401.152 31.3182 401.132 31.2036C401.111 31.0891 401.118 30.9716 401.15 30.8597C401.183 30.7478 401.241 30.6443 401.321 30.5565C401.459 30.3802 401.655 30.2539 401.878 30.1982C402.459 30.0363 403.057 29.9376 403.661 29.904C403.794 29.8892 403.929 29.9 404.057 29.9357C404.185 29.9715 404.305 30.0315 404.409 30.1122C404.512 30.1929 404.598 30.2927 404.661 30.4058C404.724 30.5188 404.763 30.6428 404.776 30.7705C404.95 31.3976 404.969 32.0552 404.832 32.6907C404.33 34.7446 402.602 35.4506 400.663 34.7927C400.119 34.6168 399.641 34.2891 399.292 33.8513C398.826 33.3242 398.496 32.6995 398.328 32.0274C398.192 31.429 398.207 30.808 398.372 30.2162C398.536 29.6244 398.846 29.0791 399.275 28.6257C399.683 28.1329 400.211 27.745 400.814 27.4971C401.194 27.2958 401.64 27.2385 402.062 27.3366C402.158 27.3621 402.245 27.4117 402.314 27.4803C402.383 27.5489 402.432 27.634 402.455 27.7267C402.478 27.8195 402.475 27.9165 402.446 28.0078C402.417 28.0991 402.364 28.1813 402.29 28.2459C402.151 28.3668 402 28.4743 401.839 28.5668C401.344 28.8697 400.912 29.2599 400.568 29.7168C400.343 30.0125 400.188 30.352 400.113 30.7115C400.039 31.0709 400.048 31.4416 400.139 31.7975C400.266 32.2827 400.546 32.7182 400.942 33.0437C402.168 34.1134 403.762 33.0811 403.483 31.6209C403.076 31.7172 402.719 31.8188 402.357 31.9044Z" fill="#3A3B7B"/>
<path d="M409.847 34.921C408.036 35.9908 405.974 34.921 405.523 32.6746C405.194 31.07 405.818 28.8235 408.003 27.9677C408.467 27.7896 408.972 27.727 409.468 27.7859C410.065 27.8907 410.613 28.1727 411.033 28.5921C411.454 29.0114 411.728 29.547 411.814 30.1233C412.182 32.0327 411.346 34.0706 409.847 34.921ZM410.477 31.3214C410.476 30.877 410.313 30.4471 410.015 30.1072C409.855 29.897 409.625 29.7464 409.362 29.681C409.1 29.6157 408.823 29.6396 408.577 29.7489C407.596 30.1553 406.905 31.6316 407.156 32.7174C407.175 32.8878 407.232 33.0521 407.325 33.1989C407.417 33.3457 407.541 33.4713 407.689 33.5671C407.838 33.6628 408.006 33.7264 408.182 33.7534C408.358 33.7803 408.539 33.7699 408.71 33.7229C409.229 33.5491 409.678 33.2243 409.994 32.7937C410.311 32.3631 410.48 31.8484 410.477 31.3214Z" fill="#3A3B7B"/>
<path d="M413.646 35.3704C413.619 35.5661 413.511 35.7435 413.348 35.8633C413.184 35.9832 412.978 36.0358 412.774 36.0095C412.57 35.9833 412.385 35.8804 412.26 35.7234C412.135 35.5664 412.081 35.3682 412.108 35.1725C412.135 34.9767 412.243 34.7994 412.406 34.6795C412.57 34.5596 412.776 34.5071 412.98 34.5333C413.184 34.5595 413.369 34.6624 413.494 34.8194C413.619 34.9764 413.673 35.1746 413.646 35.3704ZM413.161 28.155C413.267 27.9996 413.423 27.8813 413.604 27.8177C413.786 27.7541 413.985 27.7485 414.17 27.802C414.358 27.8472 414.525 27.9532 414.641 28.1022C414.758 28.2511 414.818 28.4341 414.811 28.6203C414.786 28.919 414.74 29.2157 414.671 29.5082C414.488 30.4977 414.309 31.4872 414.114 32.466C414.025 32.8565 413.908 33.2309 413.78 33.6267C413.735 33.7504 413.661 33.8622 413.562 33.953C413.501 34.0212 413.423 34.0736 413.336 34.1052C413.248 34.1368 413.153 34.1467 413.06 34.1339C412.968 34.1211 412.88 34.086 412.805 34.032C412.73 33.9779 412.67 33.9066 412.632 33.8246C412.566 33.6775 412.53 33.5195 412.526 33.3593C412.526 32.696 412.526 32.0274 412.571 31.3588C412.646 30.4047 412.795 29.4572 413.016 28.524C413.042 28.399 413.091 28.2795 413.161 28.171V28.155Z" fill="#3A3B7B"/>
<path fill-rule="evenodd" clip-rule="evenodd" d="M388.162 39.6685C388.097 39.8095 388.078 39.9667 388.111 40.1179C388.132 40.3173 388.179 40.5134 388.251 40.7018C388.34 40.9325 388.44 41.1606 388.563 41.4417C388.591 41.5064 388.621 41.5739 388.652 41.645C388.818 42.0259 389.026 42.5126 389.304 43.2171C389.383 43.4172 389.453 43.619 389.523 43.8221C389.552 43.9042 389.58 43.9865 389.609 44.0691C389.714 44.3625 389.894 44.6261 390.133 44.835C390.234 44.9499 390.369 45.0335 390.519 45.0754C390.673 45.118 390.837 45.1153 390.989 45.0676C391.141 45.0199 391.274 44.9293 391.372 44.8077C391.468 44.6884 391.525 44.5448 391.536 44.3946C391.598 44.1022 391.577 43.799 391.474 43.5171C391.312 43.049 391.127 42.5802 390.913 42.1218L390.912 42.1197C390.561 41.4024 390.204 40.69 389.83 39.9774L389.827 39.9724C389.717 39.7867 389.575 39.6207 389.406 39.4819C389.297 39.358 389.146 39.2744 388.979 39.2456C388.808 39.2162 388.633 39.2458 388.483 39.3292C388.341 39.4069 388.229 39.5256 388.162 39.6685Z" fill="#3A3B7B"/>
<path fill-rule="evenodd" clip-rule="evenodd" d="M393.529 37.9021C392.978 37.7652 392.403 37.7452 391.843 37.8437C391.409 37.8846 390.983 37.9806 390.687 38.1707C390.536 38.2675 390.415 38.3917 390.347 38.5496C390.279 38.7084 390.27 38.89 390.326 39.0923C390.428 39.4629 390.56 39.8232 390.692 40.1824L390.713 40.2406L390.714 40.2419C391.111 41.2853 391.512 42.3252 391.916 43.3615C391.963 43.5248 392.03 43.6824 392.115 43.831L392.116 43.8337C392.228 44.0183 392.372 44.1834 392.542 44.3221C392.626 44.3984 392.731 44.4511 392.845 44.4747C392.959 44.4985 393.079 44.4916 393.19 44.4547C393.301 44.4179 393.399 44.3525 393.474 44.2657C393.547 44.1803 393.596 44.0775 393.613 43.968C393.686 43.6706 393.663 43.3589 393.546 43.0746C393.51 42.979 393.481 42.8812 393.451 42.7783C393.441 42.744 393.431 42.7091 393.42 42.6735C394.346 42.3262 395.331 41.8593 395.677 40.7729C395.813 40.3975 395.824 39.9909 395.709 39.6091C395.595 39.2268 395.359 38.8879 395.036 38.6392C394.596 38.291 394.081 38.0394 393.529 37.9021ZM392.002 39.2346C392.02 39.2296 392.038 39.2249 392.057 39.2205C392.659 39.1296 393.276 39.2508 393.793 39.5616C394.021 39.7137 394.114 39.8827 394.13 40.0453C394.147 40.2127 394.083 40.3941 393.956 40.5685C393.715 40.8979 393.276 41.1615 392.879 41.2106C392.59 40.5712 392.296 39.9059 392.002 39.2346Z" fill="#3A3B7B"/>
<path d="M397.202 36.7316C397.858 36.4408 398.671 36.3906 399.307 36.595C399.467 36.6398 399.606 36.7367 399.7 36.869C399.793 37.0006 399.836 37.1591 399.822 37.3175C399.821 37.4204 399.794 37.5216 399.745 37.6129C399.695 37.7058 399.622 37.7857 399.532 37.8459C399.443 37.9061 399.34 37.9448 399.232 37.9586C399.123 37.9724 399.013 37.961 398.911 37.9254L398.903 37.9227L398.895 37.919C398.843 37.8926 398.787 37.8727 398.729 37.8598L398.726 37.859C398.278 37.745 397.856 37.9339 397.702 38.1661C397.629 38.2768 397.62 38.3886 397.681 38.4902C397.746 38.5991 397.907 38.7213 398.233 38.8084C398.322 38.8319 398.414 38.8547 398.507 38.8778C398.764 38.9418 399.032 39.0082 399.29 39.1003L399.291 39.1006C400.484 39.5363 400.929 40.4386 400.776 41.2872C400.626 42.1264 399.896 42.8902 398.798 43.0704C398.398 43.1554 397.982 43.1388 397.591 43.0223C397.199 42.9055 396.846 42.6923 396.566 42.4038L396.559 42.3963C396.471 42.2876 396.412 42.1599 396.385 42.0244C396.361 41.9022 396.374 41.7758 396.422 41.6603C396.47 41.5454 396.551 41.446 396.655 41.3735C396.766 41.2914 396.899 41.2421 397.038 41.2319C397.177 41.2216 397.315 41.2506 397.437 41.3151C397.559 41.3715 397.672 41.4435 397.774 41.5291L397.776 41.5307C397.955 41.6884 398.173 41.7295 398.381 41.6915C398.593 41.6528 398.792 41.5327 398.92 41.3733C399.047 41.2148 399.098 41.0267 399.037 40.844C398.977 40.66 398.793 40.4538 398.391 40.2814C398.285 40.2385 398.176 40.2039 398.063 40.1703C398.032 40.1612 398.001 40.1521 397.97 40.143C397.886 40.1185 397.799 40.0933 397.715 40.0656C397.656 40.0465 397.598 40.0284 397.541 40.0105C397.384 39.9615 397.232 39.9138 397.085 39.8498C396.765 39.7453 396.489 39.5446 396.297 39.2775C396.105 39.0093 396.008 38.6886 396.021 38.3632C396.022 37.5703 396.542 37.024 397.202 36.7316Z" fill="#3A3B7B"/>
<path d="M405.52 36.6472C405.392 36.5875 405.252 36.5592 405.11 36.5648C404.969 36.5704 404.831 36.6096 404.709 36.6791C404.588 36.7481 404.487 36.8448 404.415 36.9604C404.348 37.0578 404.302 37.1667 404.279 37.2811C404.256 37.3954 404.257 37.5128 404.281 37.6268C404.304 37.7734 404.331 37.9159 404.357 38.0564C404.4 38.2889 404.441 38.5163 404.469 38.748L404.47 38.7539C404.533 39.1174 404.566 39.485 404.569 39.8534L404.569 39.8586C404.59 40.2565 404.449 40.6466 404.175 40.9461L404.171 40.9515C404.082 41.061 403.963 41.1446 403.827 41.1929C403.692 41.2412 403.544 41.2523 403.403 41.2249C403.261 41.1976 403.129 41.1329 403.024 41.0381C402.918 40.9433 402.841 40.8217 402.803 40.6877C402.722 40.4052 402.675 40.1147 402.663 39.8219L402.802 37.6995C402.804 37.6717 402.806 37.6433 402.809 37.6146C402.814 37.5501 402.819 37.4845 402.822 37.4232C402.825 37.3331 402.822 37.2405 402.8 37.1527C402.778 37.0631 402.735 36.9778 402.66 36.9052C402.585 36.8333 402.484 36.7803 402.357 36.7442C402.127 36.6803 401.933 36.6824 401.771 36.7483C401.609 36.8142 401.498 36.9366 401.42 37.078C401.342 37.2182 401.292 37.3842 401.254 37.5504C401.226 37.6738 401.203 37.8033 401.182 37.9266C401.174 37.9691 401.167 38.0108 401.16 38.0513L401.16 38.0525C401.045 38.7285 401.011 39.4149 401.058 40.0984C401.067 40.4678 401.147 40.8324 401.295 41.1736C401.461 41.6138 401.763 41.9952 402.16 42.2675C402.558 42.5403 403.033 42.6907 403.522 42.6986C404.011 42.7065 404.491 42.5717 404.898 42.312C405.305 42.0527 405.62 41.681 405.802 41.2461C406.057 40.6921 406.176 40.0897 406.151 39.4846C406.136 39.0429 406.111 38.5978 406.087 38.155C406.074 37.9377 406.062 37.721 406.051 37.5055C406.046 37.2895 405.971 37.0802 405.838 36.9059C405.756 36.7956 405.647 36.7067 405.52 36.6472Z" fill="#3A3B7B"/>
<path d="M410.022 39.9752C410.009 39.9909 409.996 40.0072 409.982 40.0241C409.878 39.4512 409.782 38.8785 409.686 38.3049C409.652 38.0991 409.617 37.8924 409.582 37.6863L409.578 37.6633L409.566 37.6435C409.542 37.6061 409.539 37.5694 409.539 37.4913V37.4822L409.538 37.4733C409.512 37.3118 409.436 37.1616 409.319 37.0422C409.204 36.9232 409.053 36.8403 408.887 36.8043C408.722 36.7652 408.548 36.7738 408.388 36.8292C408.228 36.8843 408.089 36.9835 407.988 37.1143C407.903 37.2146 407.834 37.3259 407.782 37.4448C407.665 37.701 407.546 37.9578 407.427 38.2153L407.425 38.2198C407.128 38.8627 406.83 39.5099 406.54 40.1621L406.539 40.1643C406.361 40.5872 406.213 41.0328 406.067 41.4771C406.038 41.5658 406.008 41.6544 405.979 41.7428C405.926 41.883 405.903 42.032 405.911 42.1808C405.901 42.3141 405.934 42.4471 406.006 42.5617C406.079 42.6787 406.189 42.7707 406.319 42.8249C406.457 42.8831 406.612 42.8954 406.758 42.86C406.905 42.8246 407.034 42.7437 407.127 42.6299C407.246 42.4898 407.348 42.3369 407.431 42.175C407.677 41.6924 407.912 41.204 408.146 40.7177C408.236 40.5296 408.324 40.3612 408.424 40.1777C408.431 40.2003 408.438 40.2224 408.445 40.2445C408.55 40.6874 408.727 41.1117 408.97 41.5018C409.016 41.5844 409.079 41.6566 409.157 41.7134C409.236 41.771 409.326 41.8113 409.423 41.8318C409.519 41.8524 409.619 41.8524 409.715 41.8321C409.812 41.8118 409.903 41.7714 409.981 41.7142L410.137 41.6025L411.344 40.6268L411.272 41.0633C411.174 41.6633 411.077 42.2584 410.974 42.8535C410.906 43.1173 410.906 43.3929 410.974 43.6566C411.003 43.805 411.078 43.9416 411.189 44.0491C411.3 44.1574 411.443 44.231 411.599 44.2603C411.755 44.2896 411.916 44.2734 412.062 44.2136C412.206 44.1548 412.328 44.0563 412.414 43.9308C412.613 43.6939 412.737 43.407 412.771 43.1043C412.822 42.677 412.88 42.2437 412.938 41.8106C413.004 41.3115 413.071 40.8124 413.127 40.3229L413.128 40.3214C413.182 39.7856 413.208 39.2476 413.206 38.7093C413.218 38.5392 413.174 38.3697 413.08 38.2249C412.986 38.0795 412.846 37.9665 412.681 37.9019C412.509 37.8269 412.317 37.8069 412.132 37.8448C411.949 37.8824 411.783 37.9752 411.658 38.1095C411.436 38.3071 411.227 38.5186 411.033 38.7425L411.032 38.744C410.82 38.9969 410.61 39.2548 410.402 39.511C410.275 39.6668 410.148 39.8222 410.022 39.9752Z" fill="#3A3B7B"/>
</g>
<g clip-path="url(#clip4_211_2045)">
<path d="M542.081 26.2028C542.081 26.5272 542.347 26.7902 542.675 26.7902H543.27C543.598 26.7902 543.864 26.5272 543.864 26.2028C543.864 25.8785 543.598 25.6155 543.27 25.6155H542.675C542.347 25.6155 542.081 25.8785 542.081 26.2028Z" fill="#212326"/>
<path d="M524.838 44.4094H527.727L526.886 43.5788C526.663 43.3586 526.36 43.2348 526.045 43.2348H524.838C520.241 43.2348 516.515 39.5535 516.515 35.0125C516.515 30.4714 520.241 26.7902 524.838 26.7902H534.351C538.948 26.7902 542.675 30.4714 542.675 35.0125C542.675 39.5535 538.948 43.2348 534.351 43.2348H530.793C530.32 43.2348 529.866 43.0492 529.531 42.7188L528.546 41.7457C527.989 41.195 527.233 40.8856 526.444 40.8856H524.838C521.555 40.8856 518.893 38.2561 518.893 35.0125C518.893 31.7688 521.555 29.1394 524.838 29.1394H534.351C537.635 29.1394 540.297 31.7688 540.297 35.0125C540.297 38.2561 537.635 40.8856 534.351 40.8856H532.066C531.593 40.8856 531.14 40.6999 530.805 40.3695L529.82 39.3964C529.262 38.8457 528.506 38.5363 527.718 38.5363H524.838C522.868 38.5363 521.271 36.9586 521.271 35.0125C521.271 33.0663 522.868 31.4886 524.838 31.4886H534.351C536.322 31.4886 537.919 33.0663 537.919 35.0125C537.919 36.9349 536.36 38.4978 534.423 38.5356L534.423 38.5363H533.553C533.08 38.5363 532.626 38.3507 532.292 38.0203L531.306 37.0472C530.849 36.5953 530.258 36.3059 529.625 36.2166L529.595 36.1871H524.838C524.182 36.1871 523.649 35.6612 523.649 35.0125C523.649 34.3638 524.182 33.8379 524.838 33.8379H534.351C535.008 33.8379 535.54 34.3638 535.54 35.0125C535.54 35.6612 535.008 36.1871 534.351 36.1871H531.973L532.814 37.0177C533.037 37.238 533.339 37.3617 533.655 37.3617H534.351C535.665 37.3617 536.73 36.3099 536.73 35.0125C536.73 33.715 535.665 32.6632 534.351 32.6632H524.838C523.525 32.6632 522.46 33.715 522.46 35.0125C522.46 36.3099 523.525 37.3617 524.838 37.3617H529.204C529.677 37.3617 530.131 37.5473 530.466 37.8777L531.451 38.8508C532.008 39.4016 532.764 39.7109 533.553 39.7109H534.649V39.7019C537.137 39.5504 539.108 37.5087 539.108 35.0125C539.108 32.4176 536.978 30.314 534.351 30.314H524.838C522.211 30.314 520.082 32.4176 520.082 35.0125C520.082 37.6074 522.211 39.7109 524.838 39.7109H527.718C528.191 39.7109 528.645 39.8966 528.979 40.227L529.964 41.2001C530.522 41.7508 531.278 42.0602 532.066 42.0602H534.351C538.292 42.0602 541.486 38.9048 541.486 35.0125C541.486 31.1201 538.292 27.9648 534.351 27.9648H524.838C520.898 27.9648 517.704 31.1201 517.704 35.0125C517.704 38.9048 520.898 42.0602 524.838 42.0602H526.444C526.917 42.0602 527.371 42.2458 527.706 42.5762L528.691 43.5493C529.248 44.1 530.004 44.4094 530.793 44.4094H534.351C539.605 44.4094 543.864 40.2023 543.864 35.0125C543.864 29.8227 539.605 25.6155 534.351 25.6155L524.838 25.6155C519.585 25.6155 515.325 29.8227 515.325 35.0125C515.325 40.2023 519.585 44.4094 524.838 44.4094Z" fill="#212326"/>
</g>
<g clip-path="url(#clip5_211_2045)">
<path d="M647.818 27.7037C646.404 27.7037 645.048 28.2653 644.049 29.2648L640.787 32.5268C639.787 33.5263 639.226 34.8819 639.226 36.2954C639.226 39.239 641.612 41.6251 644.556 41.6251C645.969 41.6251 647.325 41.0636 648.324 40.0641L650.581 37.8077C650.581 37.8077 650.581 37.8078 650.581 37.8077L657.155 31.2336C657.632 30.7562 658.28 30.488 658.955 30.488C660.085 30.488 661.043 31.2246 661.375 32.244L663.45 30.1692C662.504 28.6867 660.844 27.7037 658.955 27.7037C657.541 27.7037 656.185 28.2653 655.186 29.2648L646.355 38.0953C645.878 38.5727 645.231 38.8408 644.556 38.8408C643.15 38.8408 642.01 37.7012 642.01 36.2954C642.01 35.6203 642.278 34.9729 642.756 34.4955L646.018 31.2336C646.495 30.7562 647.142 30.488 647.818 30.488C648.948 30.488 649.906 31.2247 650.238 32.2441L652.313 30.1692C651.366 28.6868 649.707 27.7037 647.818 27.7037Z" fill="#394149"/>
<path d="M657.493 38.0953C657.015 38.5727 656.368 38.8408 655.693 38.8408C654.563 38.8408 653.604 38.1044 653.272 37.0852L651.197 39.16C652.144 40.6422 653.804 41.6251 655.693 41.6251C657.106 41.6251 658.462 41.0636 659.461 40.0641L668.292 31.2336C668.769 30.7562 669.417 30.488 670.092 30.488C671.498 30.488 672.637 31.6276 672.637 33.0334C672.637 33.7085 672.369 34.356 671.892 34.8333L668.63 38.0953C668.152 38.5727 667.505 38.8408 666.83 38.8408C665.7 38.8408 664.741 38.1043 664.409 37.085L662.334 39.1598C663.281 40.6422 664.941 41.6251 666.83 41.6251C668.243 41.6251 669.599 41.0636 670.598 40.0641L673.86 36.8021C674.86 35.8026 675.421 34.447 675.421 33.0334C675.421 30.0899 673.035 27.7037 670.092 27.7037C668.678 27.7037 667.323 28.2653 666.323 29.2648L657.493 38.0953Z" fill="#394149"/>
</g>
<g clip-path="url(#clip6_211_2045)">
<path d="M804.887 31.6502C804.891 31.6212 804.891 31.5918 804.887 31.5628C804.891 31.5392 804.891 31.515 804.887 31.4913L804.604 29.45C804.563 29.2058 804.453 28.9775 804.288 28.7908L804.239 28.7352L804.15 28.6478L799.24 24.5016L799.378 24.6366C799.265 24.5045 799.124 24.3987 798.964 24.3273C798.804 24.2558 798.63 24.2204 798.454 24.2236H796.964C796.721 24.2189 796.484 24.2944 796.291 24.4381C796.088 24.2953 795.844 24.2201 795.594 24.2236H794.104C793.908 24.2205 793.715 24.2681 793.545 24.3615C793.374 24.455 793.231 24.591 793.131 24.7558C792.977 24.9911 792.92 25.2747 792.969 25.5501L793.156 26.8368C793.032 26.7682 792.893 26.7326 792.751 26.7336H785.532C785.273 26.7351 785.02 26.8096 784.803 26.948C784.593 27.0769 784.424 27.2614 784.317 27.4802L783.757 27.0115C783.537 26.812 783.247 26.7038 782.947 26.7097H771.621C771.361 26.7144 771.107 26.7856 770.883 26.9162C770.578 27.0914 770.354 27.3763 770.26 27.7105L766.662 39.5057C766.595 39.7001 766.589 39.9097 766.643 40.1078C766.698 40.3058 766.812 40.4834 766.97 40.6178C767.011 40.652 767.055 40.6838 767.1 40.713C767.1 40.713 767.027 40.6654 766.986 40.6257L771.896 44.7798C772.104 44.9673 772.375 45.0721 772.658 45.0737H784.073C784.334 45.067 784.588 44.9931 784.811 44.8592C784.936 44.7919 785.049 44.7031 785.143 44.5971L785.183 44.5415L785.248 44.4621L785.297 44.3747L785.832 44.8275C786.036 45.0075 786.302 45.1065 786.577 45.1055H798.017C798.277 45.097 798.531 45.0231 798.754 44.891C798.877 44.8195 798.989 44.7313 799.086 44.6289L799.127 44.5733L799.192 44.4939C799.226 44.4436 799.256 44.3905 799.281 44.335C799.307 44.2868 799.329 44.2363 799.346 44.1841L802.627 33.4135V33.3182C802.631 33.2813 802.631 33.244 802.627 33.207V33.1355C802.631 33.1118 802.631 33.0877 802.627 33.064C802.631 33.0138 802.631 32.9634 802.627 32.9131H803.68C803.772 32.9214 803.864 32.9214 803.956 32.9131H804.029C804.088 32.8958 804.145 32.8718 804.199 32.8416H804.28L804.426 32.7304L804.49 32.6828L804.604 32.5398V32.4922L804.685 32.3571C804.68 32.3309 804.68 32.304 804.685 32.2777C804.681 32.2648 804.681 32.2509 804.685 32.238C804.702 32.1914 804.716 32.1436 804.725 32.095C804.722 32.0793 804.722 32.063 804.725 32.0473C804.721 32.0237 804.721 31.9995 804.725 31.9759C804.725 31.9759 804.887 31.6661 804.887 31.6502Z" fill="black"/>
<path d="M783.279 27.6152C783.322 27.6534 783.353 27.7035 783.366 27.7589C783.379 27.8143 783.374 27.8723 783.352 27.925L779.763 39.7123C779.718 39.841 779.626 39.9486 779.504 40.0141C779.405 40.079 779.291 40.1173 779.172 40.1253H767.764C767.667 40.1207 767.575 40.0812 767.505 40.0141C767.464 39.9766 767.435 39.9278 767.422 39.8741C767.409 39.8203 767.412 39.764 767.432 39.7123L771.029 27.925C771.071 27.7947 771.16 27.6842 771.28 27.6152C771.381 27.555 771.495 27.5196 771.613 27.512H783.02C783.117 27.5129 783.21 27.5498 783.279 27.6152ZM777.325 37.3374L779.472 30.2999H773.46L771.321 37.3374H777.325ZM794.168 27.7344C794.207 27.7787 794.256 27.8139 794.311 27.8373C794.366 27.8606 794.425 27.8716 794.485 27.8694H795.967C796.024 27.87 796.079 27.8564 796.129 27.83C796.179 27.8036 796.22 27.7652 796.251 27.7185C796.277 27.682 796.296 27.6407 796.305 27.5971C796.315 27.5534 796.316 27.5083 796.307 27.4643L796.016 25.3674C795.988 25.2704 795.938 25.1807 795.87 25.1053C795.831 25.0609 795.782 25.0258 795.728 25.0024C795.673 24.979 795.614 24.968 795.554 24.9703H794.071C794.015 24.9697 793.959 24.9833 793.91 25.0097C793.86 25.0361 793.818 25.0745 793.788 25.1212C793.731 25.2324 793.707 25.3039 793.731 25.3674L794.031 27.4643C794.046 27.5664 794.094 27.661 794.168 27.7344ZM798.876 25.3515C798.848 25.2545 798.798 25.1648 798.73 25.0894C798.693 25.0452 798.645 25.0101 798.592 24.9866C798.539 24.9632 798.48 24.9522 798.422 24.9544H796.931C796.876 24.9528 796.821 24.966 796.772 24.9926C796.724 25.0192 796.684 25.0581 796.656 25.1053C796.602 25.1758 796.579 25.2643 796.591 25.3515L796.891 27.4484C796.91 27.5495 796.957 27.6431 797.029 27.7185C797.068 27.762 797.117 27.7966 797.171 27.8199C797.226 27.8432 797.285 27.8546 797.344 27.8535H798.835C798.891 27.8542 798.945 27.8407 798.994 27.8142C799.042 27.7877 799.082 27.7492 799.111 27.7026C799.139 27.6671 799.159 27.6258 799.168 27.5818C799.178 27.5378 799.178 27.4923 799.167 27.4484L798.876 25.3515ZM792.864 28.5287L792.718 27.4961H785.532C785.419 27.5022 785.31 27.5379 785.216 27.5994C785.156 27.6313 785.104 27.6755 785.064 27.729C785.023 27.7824 784.995 27.8439 784.981 27.9091L784.381 29.879C784.357 29.9282 784.349 29.9834 784.358 30.0373C784.367 30.0912 784.392 30.1412 784.43 30.1808C784.498 30.2438 784.587 30.2805 784.681 30.2841H793.415L791.268 37.3215H782.558C782.446 37.324 782.337 37.357 782.242 37.4168C782.128 37.4881 782.044 37.5984 782.007 37.7265L781.4 39.6964C781.38 39.7469 781.375 39.8019 781.385 39.8551C781.395 39.9084 781.42 39.9579 781.457 39.9982C781.523 40.0654 781.613 40.1052 781.708 40.1094H793.148C793.266 40.0994 793.38 40.0613 793.48 39.9982C793.599 39.9323 793.689 39.8245 793.731 39.6964L797.02 28.9258H793.318C793.259 28.927 793.201 28.9163 793.146 28.8944C793.092 28.8725 793.043 28.84 793.002 28.7987C792.935 28.7267 792.887 28.6393 792.864 28.5446V28.5287Z" fill="white"/>
</g>
<defs>
<clipPath id="clip0_211_2045">
<rect width="27.8428" height="27.8428" fill="white" transform="translate(3.01837 20.8497)"/>
</clipPath>
<clipPath id="clip1_211_2045">
<rect width="27.8428" height="19.4899" fill="white" transform="translate(131.095 24.9195)"/>
</clipPath>
<clipPath id="clip2_211_2045">
<rect width="38.2838" height="20.8821" fill="white" transform="translate(254.299 24.2234)"/>
</clipPath>
<clipPath id="clip3_211_2045">
<rect width="32.7153" height="20.186" fill="white" transform="translate(385.16 24.9195)"/>
</clipPath>
<clipPath id="clip4_211_2045">
<rect width="28.5388" height="18.7939" fill="white" transform="translate(515.325 25.6155)"/>
</clipPath>
<clipPath id="clip5_211_2045">
<rect width="36.1956" height="13.9214" fill="white" transform="translate(639.226 27.7037)"/>
</clipPath>
<clipPath id="clip6_211_2045">
<rect width="38.2838" height="20.8821" fill="white" transform="translate(766.607 24.2234)"/>
</clipPath>
</defs>
</svg>
