<svg width="1003" height="100" viewBox="0 0 1003 100" fill="none" xmlns="http://www.w3.org/2000/svg">
<g filter="url(#filter0_d_211_2088)">
<rect x="100.234" y="8.42688" width="208.125" height="182.097" rx="5.56856" fill="white" shape-rendering="crispEdges"/>
<path d="M226.919 51.5832C226.919 58.5029 221.309 64.1124 214.389 64.1124L195.596 64.1124C193.673 64.1124 192.115 62.5542 192.115 60.6321L192.115 36.9657C192.115 33.1214 195.232 30.005 199.076 30.005L223.438 30.005C225.361 30.005 226.919 31.5632 226.919 33.4854L226.919 51.5832Z" fill="#E8F5E9"/>
<path d="M198.373 32.0933C195.887 32.0933 193.863 34.1354 193.863 36.6319C193.863 38.2111 194.674 39.6056 195.899 40.4184C194.42 40.9129 193.14 41.8372 192.201 43.0464C191.682 42.6472 191.103 42.3262 190.477 42.0961C191.425 41.3924 192.045 40.2619 192.045 38.9913C192.045 36.874 190.332 35.1408 188.228 35.1408C186.124 35.1408 184.411 36.874 184.411 38.9913C184.411 40.2626 185.031 41.3936 185.98 42.0974C183.468 43.0243 181.674 45.451 181.674 48.307V50.3132C181.674 50.4661 181.736 50.6126 181.844 50.7203C181.953 50.8283 182.099 50.8884 182.252 50.8879H191.054C191.075 50.8902 191.097 50.8915 191.118 50.8913H205.628C205.65 50.8915 205.671 50.8902 205.692 50.8879H214.495C214.811 50.8866 215.067 50.6299 215.068 50.3132V48.307C215.068 45.451 213.277 43.0243 210.767 42.0971C211.716 41.3936 212.336 40.2623 212.336 38.991C212.336 36.8738 210.623 35.1405 208.519 35.1405C206.414 35.1405 204.702 36.8738 204.702 38.991C204.702 40.2616 205.322 41.3923 206.27 42.0959C205.643 42.3264 205.063 42.6485 204.543 43.0487C203.605 41.8388 202.327 40.9132 200.848 40.4184C202.072 39.6056 202.884 38.2111 202.884 36.6319C202.884 34.1354 200.859 32.0933 198.373 32.0933H198.373ZM198.373 33.2448C200.232 33.2448 201.731 34.7537 201.731 36.6319C201.731 38.4954 200.255 39.9896 198.417 40.0135C198.402 40.0135 198.388 40.0115 198.373 40.0115C198.358 40.0115 198.344 40.0135 198.329 40.0135C196.49 39.9899 195.016 38.4955 195.016 36.6319C195.016 34.7534 196.513 33.2448 198.373 33.2448H198.373ZM188.228 36.2923C189.703 36.2923 190.893 37.4895 190.893 38.9912C190.893 40.4828 189.719 41.675 188.257 41.6912C188.248 41.6912 188.238 41.6902 188.228 41.6902C188.218 41.6902 188.209 41.6912 188.199 41.6912C186.737 41.675 185.563 40.4826 185.563 38.9912C185.563 37.4896 186.753 36.2923 188.228 36.2923H188.228ZM208.518 36.2923C209.994 36.2923 211.184 37.4895 211.184 38.9912C211.184 40.4828 210.009 41.675 208.548 41.6912C208.538 41.6912 208.528 41.6902 208.518 41.6902C208.509 41.6902 208.499 41.6912 208.489 41.6912C207.028 41.675 205.853 40.4826 205.853 38.9912C205.853 37.4896 207.043 36.2923 208.518 36.2923H208.518ZM198.329 41.165C198.343 41.1653 198.358 41.1671 198.373 41.1671C198.387 41.1671 198.402 41.165 198.417 41.165C202.104 41.1887 205.055 44.165 205.055 47.8907L205.055 49.7394H191.691V47.8907C191.691 44.1646 194.641 41.1887 198.328 41.165H198.329ZM188.184 42.844C188.199 42.8443 188.213 42.8461 188.228 42.8461C188.243 42.8461 188.257 42.844 188.272 42.844C189.519 42.8541 190.657 43.2841 191.564 44.0036C190.915 45.151 190.54 46.4755 190.54 47.891V49.7353H182.825V48.3069C182.825 45.2789 185.206 42.8677 188.184 42.8438L188.184 42.844ZM208.474 42.844C208.489 42.8443 208.503 42.8461 208.518 42.8461C208.533 42.8461 208.547 42.844 208.562 42.844C211.54 42.8677 213.921 45.2793 213.921 48.3072V49.7353H206.202L206.202 47.891C206.202 46.4763 205.828 45.1528 205.181 44.0056C206.087 43.2851 207.226 42.854 208.474 42.844H208.474Z" fill="#103E13"/>
<path d="M145.517 81.0751H149.213L153.116 90.5986H153.282L157.186 81.0751H160.882V95.2496H157.975V86.0237H157.857L154.189 95.1804H152.21L148.541 85.9891H148.424V95.2496H145.517V81.0751ZM168.14 95.4572C167.047 95.4572 166.106 95.2357 165.317 94.7928C164.532 94.3452 163.928 93.7131 163.503 92.8964C163.079 92.0751 162.866 91.1038 162.866 89.9826C162.866 88.889 163.079 87.9293 163.503 87.1034C163.928 86.2775 164.525 85.6338 165.296 85.1724C166.071 84.711 166.98 84.4803 168.023 84.4803C168.724 84.4803 169.377 84.5933 169.981 84.8194C170.59 85.0409 171.121 85.3754 171.573 85.823C172.03 86.2705 172.385 86.8335 172.639 87.5117C172.893 88.1854 173.02 88.9744 173.02 89.8788V90.6885H164.043V88.8614H170.244C170.244 88.4369 170.152 88.0608 169.968 87.7332C169.783 87.4056 169.527 87.1495 169.199 86.965C168.876 86.7758 168.5 86.6812 168.071 86.6812C167.624 86.6812 167.227 86.785 166.881 86.9926C166.539 87.1957 166.272 87.4702 166.078 87.8163C165.884 88.1577 165.785 88.5384 165.78 88.9583V90.6955C165.78 91.2215 165.877 91.676 166.071 92.0589C166.269 92.4419 166.549 92.7372 166.908 92.9448C167.268 93.1525 167.695 93.2563 168.189 93.2563C168.516 93.2563 168.816 93.2101 169.089 93.1179C169.361 93.0256 169.594 92.8872 169.788 92.7026C169.981 92.518 170.129 92.2919 170.231 92.0243L172.957 92.2043C172.819 92.8595 172.535 93.4316 172.106 93.9207C171.682 94.4052 171.133 94.7835 170.459 95.0558C169.79 95.3234 169.017 95.4572 168.14 95.4572ZM174.944 95.2496V84.6187H177.754V86.4943H177.878C178.1 85.8714 178.469 85.38 178.986 85.0201C179.503 84.6602 180.121 84.4803 180.841 84.4803C181.57 84.4803 182.19 84.6625 182.702 85.027C183.215 85.3869 183.556 85.876 183.727 86.4943H183.838C184.054 85.8853 184.447 85.3985 185.014 85.034C185.586 84.6648 186.262 84.4803 187.042 84.4803C188.034 84.4803 188.839 84.7963 189.458 85.4285C190.08 86.056 190.392 86.9465 190.392 88.1V95.2496H187.45V88.6814C187.45 88.0908 187.293 87.6478 186.98 87.3525C186.666 87.0572 186.274 86.9096 185.803 86.9096C185.268 86.9096 184.85 87.0803 184.55 87.4218C184.25 87.7586 184.101 88.2038 184.101 88.7575V95.2496H181.242V88.6191C181.242 88.0977 181.092 87.6825 180.792 87.3733C180.497 87.0642 180.107 86.9096 179.623 86.9096C179.295 86.9096 179 86.9926 178.737 87.1588C178.478 87.3202 178.273 87.5486 178.121 87.8439C177.968 88.1346 177.892 88.4761 177.892 88.8683V95.2496H174.944ZM192.776 95.2496V81.0751H195.725V86.4043H195.815C195.944 86.1183 196.131 85.8276 196.375 85.5323C196.624 85.2324 196.947 84.9832 197.344 84.7848C197.746 84.5818 198.244 84.4803 198.839 84.4803C199.614 84.4803 200.329 84.6833 200.985 85.0893C201.64 85.4908 202.164 86.0975 202.556 86.9096C202.948 87.7171 203.144 88.7299 203.144 89.948C203.144 91.1338 202.953 92.1351 202.57 92.9518C202.191 93.7638 201.674 94.3798 201.019 94.7997C200.369 95.215 199.64 95.4226 198.832 95.4226C198.26 95.4226 197.773 95.328 197.372 95.1388C196.975 94.9497 196.65 94.712 196.396 94.426C196.142 94.1353 195.948 93.8423 195.815 93.547H195.683V95.2496H192.776ZM195.662 89.9341C195.662 90.5663 195.75 91.1176 195.925 91.5883C196.101 92.0589 196.354 92.4257 196.687 92.6887C197.019 92.9471 197.423 93.0763 197.898 93.0763C198.378 93.0763 198.784 92.9448 199.116 92.6818C199.448 92.4142 199.7 92.0451 199.87 91.5744C200.046 91.0992 200.133 90.5524 200.133 89.9341C200.133 89.3205 200.048 88.7806 199.877 88.3146C199.707 87.8486 199.455 87.484 199.123 87.221C198.791 86.958 198.382 86.8265 197.898 86.8265C197.418 86.8265 197.012 86.9534 196.68 87.2072C196.352 87.461 196.101 87.8209 195.925 88.2869C195.75 88.7529 195.662 89.302 195.662 89.9341ZM209.956 95.4572C208.863 95.4572 207.921 95.2357 207.132 94.7928C206.348 94.3452 205.744 93.7131 205.319 92.8964C204.895 92.0751 204.682 91.1038 204.682 89.9826C204.682 88.889 204.895 87.9293 205.319 87.1034C205.744 86.2775 206.341 85.6338 207.112 85.1724C207.887 84.711 208.796 84.4803 209.839 84.4803C210.54 84.4803 211.193 84.5933 211.797 84.8194C212.406 85.0409 212.937 85.3754 213.389 85.823C213.846 86.2705 214.201 86.8335 214.455 87.5117C214.709 88.1854 214.836 88.9744 214.836 89.8788V90.6885H205.859V88.8614H212.06C212.06 88.4369 211.968 88.0608 211.783 87.7332C211.599 87.4056 211.343 87.1495 211.015 86.965C210.692 86.7758 210.316 86.6812 209.887 86.6812C209.439 86.6812 209.043 86.785 208.697 86.9926C208.355 87.1957 208.087 87.4702 207.894 87.8163C207.7 88.1577 207.601 88.5384 207.596 88.9583V90.6955C207.596 91.2215 207.693 91.676 207.887 92.0589C208.085 92.4419 208.364 92.7372 208.724 92.9448C209.084 93.1525 209.511 93.2563 210.005 93.2563C210.332 93.2563 210.632 93.2101 210.904 93.1179C211.177 93.0256 211.41 92.8872 211.603 92.7026C211.797 92.518 211.945 92.2919 212.046 92.0243L214.773 92.2043C214.635 92.8595 214.351 93.4316 213.922 93.9207C213.498 94.4052 212.948 94.7835 212.275 95.0558C211.606 95.3234 210.833 95.4572 209.956 95.4572ZM216.76 95.2496V84.6187H219.618V86.4736H219.729C219.923 85.8137 220.248 85.3154 220.705 84.9786C221.162 84.6372 221.688 84.4664 222.283 84.4664C222.43 84.4664 222.59 84.4757 222.76 84.4941C222.931 84.5126 223.081 84.5379 223.21 84.5702V87.1864C223.072 87.1449 222.88 87.108 222.636 87.0757C222.391 87.0434 222.167 87.0273 221.964 87.0273C221.531 87.0273 221.143 87.1218 220.802 87.311C220.465 87.4956 220.197 87.754 219.999 88.0862C219.805 88.4184 219.708 88.8014 219.708 89.2351V95.2496H216.76ZM233.58 87.6502L230.881 87.8163C230.834 87.5856 230.735 87.3779 230.583 87.1934C230.431 87.0042 230.23 86.8542 229.981 86.7435C229.736 86.6281 229.443 86.5705 229.102 86.5705C228.645 86.5705 228.26 86.6674 227.946 86.8611C227.632 87.0503 227.475 87.3041 227.475 87.6225C227.475 87.8762 227.577 88.0908 227.78 88.2661C227.983 88.4415 228.331 88.5822 228.825 88.6883L230.749 89.0759C231.783 89.2882 232.553 89.6296 233.061 90.1002C233.568 90.5709 233.822 91.1892 233.822 91.9551C233.822 92.6518 233.617 93.2632 233.206 93.7892C232.8 94.3152 232.242 94.7259 231.531 95.0212C230.825 95.3119 230.011 95.4572 229.088 95.4572C227.681 95.4572 226.559 95.1642 225.724 94.5782C224.894 93.9876 224.407 93.1848 224.264 92.1697L227.164 92.0174C227.252 92.4465 227.464 92.7741 227.801 93.0002C228.137 93.2217 228.569 93.3324 229.095 93.3324C229.612 93.3324 230.027 93.2332 230.341 93.0348C230.659 92.8318 230.821 92.5711 230.825 92.2527C230.821 91.9851 230.708 91.7659 230.486 91.5952C230.265 91.4199 229.923 91.2861 229.462 91.1938L227.621 90.827C226.583 90.6193 225.81 90.2594 225.302 89.7473C224.799 89.2351 224.548 88.5822 224.548 87.7886C224.548 87.1057 224.732 86.5174 225.101 86.0237C225.475 85.53 225.999 85.1493 226.672 84.8817C227.351 84.6141 228.144 84.4803 229.053 84.4803C230.396 84.4803 231.453 84.764 232.223 85.3316C232.998 85.8991 233.451 86.672 233.58 87.6502ZM238.627 89.1036V95.2496H235.679V81.0751H238.544V86.4943H238.669C238.909 85.8668 239.296 85.3754 239.831 85.0201C240.367 84.6602 241.038 84.4803 241.845 84.4803C242.584 84.4803 243.227 84.6418 243.776 84.9648C244.33 85.2831 244.759 85.7422 245.064 86.3421C245.373 86.9373 245.525 87.6502 245.521 88.4807V95.2496H242.572V89.0067C242.577 88.3515 242.411 87.8416 242.074 87.4771C241.742 87.1126 241.276 86.9304 240.676 86.9304C240.274 86.9304 239.919 87.0157 239.61 87.1864C239.305 87.3572 239.065 87.6063 238.89 87.9339C238.719 88.2569 238.632 88.6468 238.627 89.1036ZM247.841 95.2496V84.6187H250.789V95.2496H247.841ZM249.322 83.2483C248.884 83.2483 248.508 83.103 248.194 82.8123C247.885 82.517 247.73 82.164 247.73 81.7533C247.73 81.3473 247.885 80.9989 248.194 80.7082C248.508 80.4129 248.884 80.2653 249.322 80.2653C249.76 80.2653 250.134 80.4129 250.443 80.7082C250.757 80.9989 250.914 81.3473 250.914 81.7533C250.914 82.164 250.757 82.517 250.443 82.8123C250.134 83.103 249.76 83.2483 249.322 83.2483ZM253.151 99.2362V84.6187H256.058V86.4043H256.189C256.319 86.1183 256.506 85.8276 256.75 85.5323C256.999 85.2324 257.322 84.9832 257.719 84.7848C258.12 84.5818 258.619 84.4803 259.214 84.4803C259.989 84.4803 260.704 84.6833 261.36 85.0893C262.015 85.4908 262.538 86.0975 262.931 86.9096C263.323 87.7171 263.519 88.7299 263.519 89.948C263.519 91.1338 263.327 92.1351 262.944 92.9518C262.566 93.7638 262.049 94.3798 261.394 94.7997C260.744 95.215 260.015 95.4226 259.207 95.4226C258.635 95.4226 258.148 95.328 257.747 95.1388C257.35 94.9497 257.025 94.712 256.771 94.426C256.517 94.1353 256.323 93.8423 256.189 93.547H256.099V99.2362H253.151ZM256.037 89.9341C256.037 90.5663 256.125 91.1176 256.3 91.5883C256.476 92.0589 256.729 92.4257 257.062 92.6887C257.394 92.9471 257.797 93.0763 258.273 93.0763C258.753 93.0763 259.159 92.9448 259.491 92.6818C259.823 92.4142 260.075 92.0451 260.245 91.5744C260.421 91.0992 260.508 90.5524 260.508 89.9341C260.508 89.3205 260.423 88.7806 260.252 88.3146C260.081 87.8486 259.83 87.484 259.498 87.221C259.166 86.958 258.757 86.8265 258.273 86.8265C257.793 86.8265 257.387 86.9534 257.055 87.2072C256.727 87.461 256.476 87.8209 256.3 88.2869C256.125 88.7529 256.037 89.302 256.037 89.9341ZM151.576 113.162C151.576 114.708 151.283 116.023 150.697 117.107C150.116 118.192 149.322 119.02 148.316 119.592C147.315 120.16 146.189 120.443 144.939 120.443C143.679 120.443 142.549 120.157 141.548 119.585C140.546 119.013 139.755 118.185 139.174 117.1C138.592 116.016 138.302 114.703 138.302 113.162C138.302 111.617 138.592 110.302 139.174 109.217C139.755 108.133 140.546 107.307 141.548 106.739C142.549 106.167 143.679 105.881 144.939 105.881C146.189 105.881 147.315 106.167 148.316 106.739C149.322 107.307 150.116 108.133 150.697 109.217C151.283 110.302 151.576 111.617 151.576 113.162ZM148.538 113.162C148.538 112.161 148.388 111.317 148.088 110.629C147.793 109.942 147.375 109.42 146.835 109.065C146.296 108.71 145.663 108.532 144.939 108.532C144.215 108.532 143.582 108.71 143.043 109.065C142.503 109.42 142.083 109.942 141.783 110.629C141.488 111.317 141.34 112.161 141.34 113.162C141.34 114.164 141.488 115.008 141.783 115.695C142.083 116.383 142.503 116.904 143.043 117.26C143.582 117.615 144.215 117.793 144.939 117.793C145.663 117.793 146.296 117.615 146.835 117.26C147.375 116.904 147.793 116.383 148.088 115.695C148.388 115.008 148.538 114.164 148.538 113.162ZM153.741 120.25V109.619H156.599V111.474H156.71C156.904 110.814 157.229 110.315 157.686 109.979C158.143 109.637 158.669 109.466 159.264 109.466C159.412 109.466 159.571 109.476 159.742 109.494C159.912 109.513 160.062 109.538 160.191 109.57V112.186C160.053 112.145 159.862 112.108 159.617 112.076C159.372 112.043 159.149 112.027 158.946 112.027C158.512 112.027 158.124 112.122 157.783 112.311C157.446 112.496 157.178 112.754 156.98 113.086C156.786 113.418 156.689 113.801 156.689 114.235V120.25H153.741ZM166.01 124.458C165.055 124.458 164.236 124.326 163.553 124.063C162.875 123.805 162.335 123.452 161.934 123.004C161.532 122.557 161.272 122.054 161.152 121.495L163.879 121.129C163.962 121.341 164.093 121.539 164.273 121.724C164.453 121.908 164.691 122.056 164.986 122.167C165.286 122.282 165.65 122.34 166.08 122.34C166.721 122.34 167.249 122.183 167.665 121.869C168.084 121.56 168.294 121.041 168.294 120.312V118.367H168.17C168.041 118.662 167.847 118.941 167.588 119.204C167.33 119.467 166.998 119.682 166.592 119.848C166.186 120.014 165.701 120.097 165.138 120.097C164.34 120.097 163.613 119.913 162.958 119.544C162.308 119.17 161.788 118.6 161.401 117.834C161.018 117.064 160.826 116.09 160.826 114.913C160.826 113.709 161.023 112.703 161.415 111.896C161.807 111.088 162.328 110.484 162.979 110.082C163.634 109.681 164.352 109.48 165.131 109.48C165.727 109.48 166.225 109.582 166.626 109.785C167.028 109.983 167.351 110.232 167.595 110.532C167.844 110.828 168.036 111.118 168.17 111.404H168.281V109.619H171.208V120.353C171.208 121.258 170.987 122.014 170.544 122.624C170.101 123.233 169.487 123.689 168.703 123.994C167.923 124.303 167.025 124.458 166.01 124.458ZM166.073 117.883C166.548 117.883 166.949 117.765 167.277 117.53C167.609 117.29 167.863 116.948 168.038 116.505C168.218 116.058 168.308 115.522 168.308 114.9C168.308 114.277 168.221 113.737 168.045 113.28C167.87 112.819 167.616 112.461 167.284 112.207C166.952 111.953 166.548 111.827 166.073 111.827C165.588 111.827 165.18 111.958 164.848 112.221C164.515 112.479 164.264 112.839 164.093 113.301C163.923 113.762 163.837 114.295 163.837 114.9C163.837 115.513 163.923 116.044 164.093 116.491C164.269 116.934 164.52 117.278 164.848 117.523C165.18 117.763 165.588 117.883 166.073 117.883ZM176.586 120.45C175.908 120.45 175.303 120.333 174.773 120.097C174.242 119.857 173.822 119.504 173.513 119.038C173.208 118.568 173.056 117.982 173.056 117.28C173.056 116.69 173.165 116.194 173.381 115.792C173.598 115.391 173.894 115.068 174.267 114.823C174.641 114.579 175.066 114.394 175.541 114.27C176.021 114.145 176.524 114.057 177.05 114.007C177.668 113.942 178.166 113.882 178.545 113.827C178.923 113.767 179.197 113.679 179.368 113.564C179.539 113.448 179.624 113.278 179.624 113.052V113.01C179.624 112.572 179.486 112.233 179.209 111.993C178.937 111.753 178.549 111.633 178.046 111.633C177.516 111.633 177.093 111.75 176.78 111.986C176.466 112.216 176.258 112.507 176.157 112.858L173.43 112.636C173.568 111.99 173.841 111.432 174.247 110.961C174.653 110.486 175.176 110.122 175.818 109.868C176.464 109.609 177.211 109.48 178.06 109.48C178.651 109.48 179.216 109.549 179.756 109.688C180.3 109.826 180.782 110.041 181.202 110.332C181.627 110.622 181.961 110.996 182.206 111.453C182.45 111.905 182.573 112.447 182.573 113.079V120.25H179.777V118.775H179.693C179.523 119.108 179.294 119.401 179.008 119.654C178.722 119.904 178.378 120.1 177.977 120.243C177.576 120.381 177.112 120.45 176.586 120.45ZM177.43 118.415C177.864 118.415 178.247 118.33 178.579 118.159C178.911 117.984 179.172 117.749 179.361 117.453C179.55 117.158 179.645 116.824 179.645 116.45V115.322C179.553 115.382 179.426 115.437 179.264 115.488C179.107 115.534 178.93 115.578 178.731 115.619C178.533 115.656 178.335 115.691 178.136 115.723C177.938 115.751 177.758 115.776 177.596 115.799C177.25 115.85 176.948 115.931 176.69 116.042C176.431 116.152 176.231 116.302 176.088 116.491C175.945 116.676 175.873 116.907 175.873 117.184C175.873 117.585 176.018 117.892 176.309 118.104C176.604 118.312 176.978 118.415 177.43 118.415ZM187.809 114.104V120.25H184.86V109.619H187.67V111.494H187.795C188.03 110.876 188.425 110.387 188.978 110.027C189.532 109.663 190.203 109.48 190.992 109.48C191.731 109.48 192.374 109.642 192.923 109.965C193.472 110.288 193.899 110.749 194.204 111.349C194.508 111.944 194.66 112.655 194.66 113.481V120.25H191.712V114.007C191.717 113.356 191.551 112.849 191.214 112.484C190.877 112.115 190.413 111.93 189.823 111.93C189.426 111.93 189.075 112.016 188.771 112.186C188.471 112.357 188.235 112.606 188.065 112.934C187.899 113.257 187.813 113.647 187.809 114.104ZM196.984 120.25V109.619H199.933V120.25H196.984ZM198.465 108.248C198.027 108.248 197.651 108.103 197.337 107.812C197.028 107.517 196.874 107.164 196.874 106.753C196.874 106.347 197.028 105.999 197.337 105.708C197.651 105.413 198.027 105.265 198.465 105.265C198.904 105.265 199.277 105.413 199.587 105.708C199.9 105.999 200.057 106.347 200.057 106.753C200.057 107.164 199.9 107.517 199.587 107.812C199.277 108.103 198.904 108.248 198.465 108.248ZM211.14 112.65L208.44 112.816C208.394 112.586 208.295 112.378 208.143 112.193C207.991 112.004 207.79 111.854 207.541 111.743C207.296 111.628 207.003 111.57 206.662 111.57C206.205 111.57 205.82 111.667 205.506 111.861C205.192 112.05 205.035 112.304 205.035 112.622C205.035 112.876 205.137 113.091 205.34 113.266C205.543 113.441 205.891 113.582 206.385 113.688L208.309 114.076C209.343 114.288 210.113 114.63 210.621 115.1C211.128 115.571 211.382 116.189 211.382 116.955C211.382 117.652 211.177 118.263 210.766 118.789C210.36 119.315 209.802 119.726 209.091 120.021C208.385 120.312 207.571 120.457 206.648 120.457C205.241 120.457 204.119 120.164 203.284 119.578C202.454 118.988 201.967 118.185 201.824 117.17L204.724 117.017C204.811 117.447 205.024 117.774 205.361 118C205.697 118.222 206.129 118.332 206.655 118.332C207.172 118.332 207.587 118.233 207.901 118.035C208.219 117.832 208.38 117.571 208.385 117.253C208.38 116.985 208.267 116.766 208.046 116.595C207.824 116.42 207.483 116.286 207.022 116.194L205.181 115.827C204.142 115.619 203.37 115.259 202.862 114.747C202.359 114.235 202.108 113.582 202.108 112.789C202.108 112.106 202.292 111.517 202.661 111.024C203.035 110.53 203.559 110.149 204.232 109.882C204.911 109.614 205.704 109.48 206.613 109.48C207.956 109.48 209.013 109.764 209.783 110.332C210.558 110.899 211.011 111.672 211.14 112.65ZM216.27 120.45C215.592 120.45 214.987 120.333 214.457 120.097C213.926 119.857 213.506 119.504 213.197 119.038C212.892 118.568 212.74 117.982 212.74 117.28C212.74 116.69 212.849 116.194 213.066 115.792C213.282 115.391 213.578 115.068 213.951 114.823C214.325 114.579 214.75 114.394 215.225 114.27C215.705 114.145 216.208 114.057 216.734 114.007C217.352 113.942 217.85 113.882 218.229 113.827C218.607 113.767 218.882 113.679 219.052 113.564C219.223 113.448 219.308 113.278 219.308 113.052V113.01C219.308 112.572 219.17 112.233 218.893 111.993C218.621 111.753 218.233 111.633 217.73 111.633C217.2 111.633 216.778 111.75 216.464 111.986C216.15 112.216 215.942 112.507 215.841 112.858L213.114 112.636C213.252 111.99 213.525 111.432 213.931 110.961C214.337 110.486 214.86 110.122 215.502 109.868C216.148 109.609 216.895 109.48 217.744 109.48C218.335 109.48 218.9 109.549 219.44 109.688C219.984 109.826 220.467 110.041 220.886 110.332C221.311 110.622 221.645 110.996 221.89 111.453C222.135 111.905 222.257 112.447 222.257 113.079V120.25H219.461V118.775H219.378C219.207 119.108 218.978 119.401 218.692 119.654C218.406 119.904 218.063 120.1 217.661 120.243C217.26 120.381 216.796 120.45 216.27 120.45ZM217.114 118.415C217.548 118.415 217.931 118.33 218.263 118.159C218.596 117.984 218.856 117.749 219.045 117.453C219.235 117.158 219.329 116.824 219.329 116.45V115.322C219.237 115.382 219.11 115.437 218.948 115.488C218.792 115.534 218.614 115.578 218.416 115.619C218.217 115.656 218.019 115.691 217.82 115.723C217.622 115.751 217.442 115.776 217.281 115.799C216.934 115.85 216.632 115.931 216.374 116.042C216.115 116.152 215.915 116.302 215.772 116.491C215.629 116.676 215.557 116.907 215.557 117.184C215.557 117.585 215.702 117.892 215.993 118.104C216.288 118.312 216.662 118.415 217.114 118.415ZM230.199 109.619V111.833H223.797V109.619H230.199ZM225.25 107.072H228.199V116.983C228.199 117.255 228.24 117.467 228.323 117.62C228.406 117.767 228.522 117.871 228.669 117.931C228.822 117.991 228.997 118.021 229.195 118.021C229.334 118.021 229.472 118.009 229.611 117.986C229.749 117.959 229.855 117.938 229.929 117.924L230.393 120.118C230.245 120.164 230.037 120.217 229.77 120.277C229.502 120.342 229.177 120.381 228.794 120.395C228.083 120.423 227.46 120.328 226.925 120.111C226.394 119.894 225.982 119.557 225.686 119.101C225.391 118.644 225.246 118.067 225.25 117.37V107.072ZM232.119 120.25V109.619H235.068V120.25H232.119ZM233.601 108.248C233.162 108.248 232.786 108.103 232.472 107.812C232.163 107.517 232.009 107.164 232.009 106.753C232.009 106.347 232.163 105.999 232.472 105.708C232.786 105.413 233.162 105.265 233.601 105.265C234.039 105.265 234.413 105.413 234.722 105.708C235.036 105.999 235.192 106.347 235.192 106.753C235.192 107.164 235.036 107.517 234.722 107.812C234.413 108.103 234.039 108.248 233.601 108.248ZM242.233 120.457C241.158 120.457 240.228 120.229 239.444 119.772C238.664 119.311 238.062 118.669 237.637 117.848C237.213 117.022 237.001 116.065 237.001 114.976C237.001 113.878 237.213 112.918 237.637 112.096C238.062 111.271 238.664 110.629 239.444 110.172C240.228 109.711 241.158 109.48 242.233 109.48C243.308 109.48 244.235 109.711 245.015 110.172C245.8 110.629 246.404 111.271 246.829 112.096C247.253 112.918 247.465 113.878 247.465 114.976C247.465 116.065 247.253 117.022 246.829 117.848C246.404 118.669 245.8 119.311 245.015 119.772C244.235 120.229 243.308 120.457 242.233 120.457ZM242.247 118.173C242.736 118.173 243.144 118.035 243.472 117.758C243.799 117.477 244.046 117.094 244.212 116.609C244.383 116.125 244.468 115.573 244.468 114.955C244.468 114.337 244.383 113.785 244.212 113.301C244.046 112.816 243.799 112.433 243.472 112.152C243.144 111.87 242.736 111.73 242.247 111.73C241.753 111.73 241.338 111.87 241.001 112.152C240.669 112.433 240.417 112.816 240.247 113.301C240.08 113.785 239.997 114.337 239.997 114.955C239.997 115.573 240.08 116.125 240.247 116.609C240.417 117.094 240.669 117.477 241.001 117.758C241.338 118.035 241.753 118.173 242.247 118.173ZM252.331 114.104V120.25H249.382V109.619H252.192V111.494H252.317C252.552 110.876 252.947 110.387 253.501 110.027C254.054 109.663 254.726 109.48 255.515 109.48C256.253 109.48 256.897 109.642 257.446 109.965C257.995 110.288 258.422 110.749 258.726 111.349C259.031 111.944 259.183 112.655 259.183 113.481V120.25H256.234V114.007C256.239 113.356 256.073 112.849 255.736 112.484C255.399 112.115 254.936 111.93 254.345 111.93C253.948 111.93 253.597 112.016 253.293 112.186C252.993 112.357 252.758 112.606 252.587 112.934C252.421 113.257 252.336 113.647 252.331 114.104ZM270.352 112.65L267.653 112.816C267.606 112.586 267.507 112.378 267.355 112.193C267.203 112.004 267.002 111.854 266.753 111.743C266.508 111.628 266.215 111.57 265.874 111.57C265.417 111.57 265.032 111.667 264.718 111.861C264.404 112.05 264.247 112.304 264.247 112.622C264.247 112.876 264.349 113.091 264.552 113.266C264.755 113.441 265.103 113.582 265.597 113.688L267.521 114.076C268.555 114.288 269.325 114.63 269.833 115.1C270.34 115.571 270.594 116.189 270.594 116.955C270.594 117.652 270.389 118.263 269.978 118.789C269.572 119.315 269.014 119.726 268.303 120.021C267.597 120.312 266.783 120.457 265.86 120.457C264.453 120.457 263.331 120.164 262.496 119.578C261.666 118.988 261.179 118.185 261.036 117.17L263.936 117.017C264.024 117.447 264.236 117.774 264.573 118C264.91 118.222 265.341 118.332 265.867 118.332C266.384 118.332 266.799 118.233 267.113 118.035C267.431 117.832 267.593 117.571 267.597 117.253C267.593 116.985 267.48 116.766 267.258 116.595C267.037 116.42 266.695 116.286 266.234 116.194L264.393 115.827C263.355 115.619 262.582 115.259 262.074 114.747C261.571 114.235 261.32 113.582 261.32 112.789C261.32 112.106 261.504 111.517 261.873 111.024C262.247 110.53 262.771 110.149 263.445 109.882C264.123 109.614 264.916 109.48 265.825 109.48C267.168 109.48 268.225 109.764 268.995 110.332C269.77 110.899 270.223 111.672 270.352 112.65Z" fill="#4D4D4D"/>
</g>
<g filter="url(#filter1_d_211_2088)">
<rect x="397.108" y="1.42688" width="208.125" height="196.097" rx="5.56856" fill="white" shape-rendering="crispEdges"/>
<path d="M523.792 44.5832C523.792 51.5029 518.183 57.1124 511.263 57.1124L492.469 57.1124C490.547 57.1124 488.989 55.5542 488.989 53.6321L488.989 29.9657C488.989 26.1214 492.105 23.005 495.95 23.005L520.312 23.005C522.234 23.005 523.792 24.5632 523.792 26.4854L523.792 44.5832Z" fill="#E8F5E9"/>
<path d="M497.283 31.3655C497.066 31.3655 496.89 31.1892 496.89 30.9717V30.3026C496.89 30.0854 497.066 29.9088 497.283 29.9088C497.501 29.9088 497.677 30.0851 497.677 30.3026V30.9717C497.677 31.1892 497.501 31.3655 497.283 31.3655Z" fill="#103E13"/>
<path d="M495.628 31.3655C495.411 31.3655 495.234 31.1892 495.234 30.9717V30.3026C495.234 30.0854 495.411 29.9088 495.628 29.9088C495.845 29.9088 496.022 30.0851 496.022 30.3026V30.9717C496.021 31.1892 495.845 31.3655 495.628 31.3655Z" fill="#103E13"/>
<path d="M493.973 31.3655C493.756 31.3655 493.579 31.1892 493.579 30.9717V30.3026C493.579 30.0854 493.755 29.9088 493.973 29.9088C494.19 29.9088 494.366 30.0851 494.366 30.3026V30.9717C494.366 31.1892 494.19 31.3655 493.973 31.3655Z" fill="#103E13"/>
<path d="M497.283 34.1018C497.066 34.1018 496.89 33.9255 496.89 33.7081V33.0392C496.89 32.822 497.066 32.6454 497.283 32.6454C497.501 32.6454 497.677 32.8217 497.677 33.0392V33.7081C497.677 33.9255 497.501 34.1018 497.283 34.1018Z" fill="#103E13"/>
<path d="M495.628 34.1018C495.411 34.1018 495.234 33.9255 495.234 33.7081V33.0392C495.234 32.822 495.411 32.6454 495.628 32.6454C495.845 32.6454 496.022 32.8217 496.022 33.0392V33.7081C496.021 33.9255 495.845 34.1018 495.628 34.1018Z" fill="#103E13"/>
<path d="M493.973 34.1018C493.756 34.1018 493.579 33.9255 493.579 33.7081V33.0392C493.579 32.822 493.755 32.6454 493.973 32.6454C494.19 32.6454 494.366 32.8217 494.366 33.0392V33.7081C494.366 33.9255 494.19 34.1018 493.973 34.1018Z" fill="#103E13"/>
<path d="M497.283 36.8383C497.066 36.8383 496.89 36.662 496.89 36.4445V35.7754C496.89 35.5582 497.066 35.3817 497.283 35.3817C497.501 35.3817 497.677 35.5579 497.677 35.7754V36.4445C497.677 36.662 497.501 36.8383 497.283 36.8383Z" fill="#103E13"/>
<path d="M495.628 36.8383C495.411 36.8383 495.234 36.662 495.234 36.4445V35.7754C495.234 35.5582 495.411 35.3817 495.628 35.3817C495.845 35.3817 496.022 35.5579 496.022 35.7754V36.4445C496.021 36.662 495.845 36.8383 495.628 36.8383Z" fill="#103E13"/>
<path d="M493.973 36.8383C493.756 36.8383 493.579 36.662 493.579 36.4445V35.7754C493.579 35.5582 493.755 35.3817 493.973 35.3817C494.19 35.3817 494.366 35.5579 494.366 35.7754V36.4445C494.366 36.662 494.19 36.8383 493.973 36.8383Z" fill="#103E13"/>
<path d="M497.283 39.5741C497.066 39.5741 496.89 39.3979 496.89 39.1804V38.5112C496.89 38.2941 497.066 38.1175 497.283 38.1175C497.501 38.1175 497.677 38.2938 497.677 38.5112V39.1804C497.677 39.3979 497.501 39.5741 497.283 39.5741Z" fill="#103E13"/>
<path d="M495.628 39.5741C495.411 39.5741 495.234 39.3979 495.234 39.1804V38.5112C495.234 38.2941 495.411 38.1175 495.628 38.1175C495.845 38.1175 496.022 38.2938 496.022 38.5112V39.1804C496.021 39.3979 495.845 39.5741 495.628 39.5741Z" fill="#103E13"/>
<path d="M493.973 39.5741C493.756 39.5741 493.579 39.3979 493.579 39.1804V38.5112C493.579 38.2941 493.755 38.1175 493.973 38.1175C494.19 38.1175 494.366 38.2938 494.366 38.5112V39.1804C494.366 39.3979 494.19 39.5741 493.973 39.5741Z" fill="#103E13"/>
<path d="M497.283 42.3105C497.066 42.3105 496.89 42.1342 496.89 41.9167V41.2479C496.89 41.0307 497.066 40.8541 497.283 40.8541C497.501 40.8541 497.677 41.0304 497.677 41.2479V41.9167C497.677 42.1339 497.501 42.3105 497.283 42.3105Z" fill="#103E13"/>
<path d="M495.628 42.3105C495.411 42.3105 495.234 42.1342 495.234 41.9167V41.2479C495.234 41.0307 495.411 40.8541 495.628 40.8541C495.845 40.8541 496.022 41.0304 496.022 41.2479V41.9167C496.021 42.1339 495.845 42.3105 495.628 42.3105Z" fill="#103E13"/>
<path d="M493.973 42.3105C493.756 42.3105 493.579 42.1342 493.579 41.9167L493.579 41.2479C493.579 41.0307 493.756 40.8541 493.973 40.8541C494.19 40.8541 494.367 41.0304 494.367 41.2479V41.9167C494.366 42.1339 494.19 42.3105 493.973 42.3105Z" fill="#103E13"/>
<path d="M482.725 45.0337C482.725 45.2509 482.901 45.4274 483.118 45.4274H507.096C507.313 45.4274 507.49 45.2512 507.49 45.0337C507.49 44.8165 507.314 44.6399 507.096 44.6399H506.368V33.3349C506.368 33.1177 506.192 32.9411 505.975 32.9411L499.546 32.9414V24.791C499.546 24.6532 499.474 24.5258 499.357 24.4544C499.239 24.3827 499.093 24.3783 498.971 24.4418L491.662 28.2472C491.531 28.315 491.45 28.4495 491.45 28.5964V35.7156H484.377C484.159 35.7156 483.983 35.8919 483.983 36.1094V44.64H483.117C482.9 44.6397 482.724 44.816 482.724 45.0335L482.725 45.0337ZM499.546 38.9049H505.581V44.6403L499.546 44.64V38.9049ZM499.546 36.1687H505.581V38.1177L499.546 38.1174V36.1687ZM499.546 33.7285H505.581V35.3817H499.546V33.7285ZM492.237 28.8355L498.758 25.4401V44.6396H492.237V28.8355ZM486.717 41.4951C486.717 40.678 487.364 40.0129 488.16 40.0129C488.956 40.0129 489.604 40.6777 489.604 41.4951V44.6401H486.717V41.4951ZM484.77 36.503H491.45V44.64H490.391V41.495C490.391 40.2437 489.391 39.2256 488.16 39.2256C486.93 39.2256 485.93 40.2434 485.93 41.495V44.64H484.77V36.503Z" fill="#103E13"/>
<path d="M474.65 74.0751V88.2496H472.061L465.895 79.3282H465.791V88.2496H462.794V74.0751H465.424L471.542 82.9895H471.667V74.0751H474.65ZM480.102 88.4503C479.424 88.4503 478.819 88.3326 478.289 88.0973C477.758 87.8574 477.338 87.5044 477.029 87.0384C476.725 86.5677 476.572 85.9817 476.572 85.2804C476.572 84.6898 476.681 84.1938 476.898 83.7924C477.114 83.3909 477.41 83.0679 477.783 82.8234C478.157 82.5788 478.582 82.3943 479.057 82.2697C479.537 82.1451 480.04 82.0575 480.566 82.0067C481.184 81.9421 481.682 81.8821 482.061 81.8267C482.439 81.7668 482.714 81.6791 482.884 81.5637C483.055 81.4484 483.14 81.2777 483.14 81.0516V81.0101C483.14 80.5717 483.002 80.2326 482.725 79.9926C482.453 79.7527 482.065 79.6327 481.562 79.6327C481.032 79.6327 480.61 79.7504 480.296 79.9857C479.982 80.2164 479.774 80.5071 479.673 80.8578L476.946 80.6363C477.084 79.9903 477.357 79.432 477.763 78.9614C478.169 78.4861 478.692 78.1216 479.334 77.8679C479.98 77.6095 480.727 77.4803 481.576 77.4803C482.167 77.4803 482.732 77.5495 483.272 77.6879C483.816 77.8263 484.299 78.0409 484.718 78.3316C485.143 78.6223 485.477 78.996 485.722 79.4528C485.967 79.905 486.089 80.4471 486.089 81.0793V88.2496H483.293V86.7754H483.21C483.039 87.1076 482.811 87.4006 482.524 87.6544C482.238 87.9035 481.895 88.0996 481.493 88.2427C481.092 88.3811 480.628 88.4503 480.102 88.4503ZM480.946 86.4155C481.38 86.4155 481.763 86.3301 482.095 86.1594C482.428 85.9841 482.688 85.7487 482.877 85.4534C483.067 85.1581 483.161 84.8236 483.161 84.4499V83.3217C483.069 83.3817 482.942 83.4371 482.781 83.4878C482.624 83.534 482.446 83.5778 482.248 83.6193C482.049 83.6562 481.851 83.6908 481.652 83.7231C481.454 83.7508 481.274 83.7762 481.113 83.7993C480.766 83.85 480.464 83.9308 480.206 84.0415C479.947 84.1523 479.747 84.3022 479.604 84.4914C479.461 84.676 479.389 84.9067 479.389 85.1835C479.389 85.5849 479.535 85.8918 479.825 86.104C480.121 86.3117 480.494 86.4155 480.946 86.4155ZM494.031 77.6187V79.8335H487.629V77.6187H494.031ZM489.082 75.0717H492.031V84.9828C492.031 85.255 492.072 85.4673 492.155 85.6195C492.238 85.7672 492.354 85.871 492.501 85.931C492.654 85.991 492.829 86.021 493.027 86.021C493.166 86.021 493.304 86.0094 493.443 85.9864C493.581 85.9587 493.687 85.9379 493.761 85.9241L494.225 88.1181C494.077 88.1642 493.869 88.2173 493.602 88.2773C493.334 88.3419 493.009 88.3811 492.626 88.3949C491.915 88.4226 491.292 88.328 490.757 88.1111C490.227 87.8943 489.814 87.5575 489.518 87.1007C489.223 86.6439 489.078 86.0671 489.082 85.3704V75.0717ZM495.951 88.2496V77.6187H498.9V88.2496H495.951ZM497.433 76.2483C496.994 76.2483 496.618 76.103 496.304 75.8123C495.995 75.517 495.841 75.164 495.841 74.7533C495.841 74.3473 495.995 73.9989 496.304 73.7082C496.618 73.4129 496.994 73.2653 497.433 73.2653C497.871 73.2653 498.245 73.4129 498.554 73.7082C498.868 73.9989 499.024 74.3473 499.024 74.7533C499.024 75.164 498.868 75.517 498.554 75.8123C498.245 76.103 497.871 76.2483 497.433 76.2483ZM506.065 88.4572C504.99 88.4572 504.06 88.2288 503.276 87.772C502.496 87.3106 501.894 86.6692 501.469 85.8479C501.045 85.022 500.833 84.0646 500.833 82.9757C500.833 81.8775 501.045 80.9178 501.469 80.0965C501.894 79.2705 502.496 78.6292 503.276 78.1724C504.06 77.711 504.99 77.4803 506.065 77.4803C507.14 77.4803 508.068 77.711 508.847 78.1724C509.632 78.6292 510.236 79.2705 510.661 80.0965C511.085 80.9178 511.297 81.8775 511.297 82.9757C511.297 84.0646 511.085 85.022 510.661 85.8479C510.236 86.6692 509.632 87.3106 508.847 87.772C508.068 88.2288 507.14 88.4572 506.065 88.4572ZM506.079 86.1732C506.568 86.1732 506.976 86.0348 507.304 85.758C507.631 85.4765 507.878 85.0935 508.044 84.6091C508.215 84.1246 508.301 83.5732 508.301 82.9549C508.301 82.3366 508.215 81.7852 508.044 81.3007C507.878 80.8163 507.631 80.4333 507.304 80.1518C506.976 79.8704 506.568 79.7296 506.079 79.7296C505.585 79.7296 505.17 79.8704 504.833 80.1518C504.501 80.4333 504.249 80.8163 504.079 81.3007C503.913 81.7852 503.829 82.3366 503.829 82.9549C503.829 83.5732 503.913 84.1246 504.079 84.6091C504.249 85.0935 504.501 85.4765 504.833 85.758C505.17 86.0348 505.585 86.1732 506.079 86.1732ZM516.163 82.1036V88.2496H513.215V77.6187H516.025V79.4943H516.149C516.384 78.876 516.779 78.3869 517.333 78.027C517.886 77.6625 518.558 77.4803 519.347 77.4803C520.085 77.4803 520.729 77.6418 521.278 77.9648C521.827 78.2877 522.254 78.7491 522.558 79.349C522.863 79.9442 523.015 80.6548 523.015 81.4807V88.2496H520.066V82.0067C520.071 81.3561 519.905 80.8486 519.568 80.484C519.231 80.1149 518.768 79.9304 518.177 79.9304C517.78 79.9304 517.43 80.0157 517.125 80.1864C516.825 80.3572 516.59 80.6063 516.419 80.9339C516.253 81.2569 516.168 81.6468 516.163 82.1036ZM528.37 88.4503C527.692 88.4503 527.087 88.3326 526.557 88.0973C526.026 87.8574 525.606 87.5044 525.297 87.0384C524.993 86.5677 524.84 85.9817 524.84 85.2804C524.84 84.6898 524.949 84.1938 525.166 83.7924C525.383 83.3909 525.678 83.0679 526.052 82.8234C526.425 82.5788 526.85 82.3943 527.325 82.2697C527.805 82.1451 528.308 82.0575 528.834 82.0067C529.452 81.9421 529.95 81.8821 530.329 81.8267C530.707 81.7668 530.982 81.6791 531.152 81.5637C531.323 81.4484 531.409 81.2777 531.409 81.0516V81.0101C531.409 80.5717 531.27 80.2326 530.993 79.9926C530.721 79.7527 530.333 79.6327 529.83 79.6327C529.3 79.6327 528.878 79.7504 528.564 79.9857C528.25 80.2164 528.043 80.5071 527.941 80.8578L525.214 80.6363C525.353 79.9903 525.625 79.432 526.031 78.9614C526.437 78.4861 526.961 78.1216 527.602 77.8679C528.248 77.6095 528.995 77.4803 529.844 77.4803C530.435 77.4803 531 77.5495 531.54 77.6879C532.084 77.8263 532.567 78.0409 532.987 78.3316C533.411 78.6223 533.746 78.996 533.99 79.4528C534.235 79.905 534.357 80.4471 534.357 81.0793V88.2496H531.561V86.7754H531.478C531.307 87.1076 531.079 87.4006 530.793 87.6544C530.506 87.9035 530.163 88.0996 529.761 88.2427C529.36 88.3811 528.896 88.4503 528.37 88.4503ZM529.215 86.4155C529.648 86.4155 530.031 86.3301 530.363 86.1594C530.696 85.9841 530.956 85.7487 531.146 85.4534C531.335 85.1581 531.429 84.8236 531.429 84.4499V83.3217C531.337 83.3817 531.21 83.4371 531.049 83.4878C530.892 83.534 530.714 83.5778 530.516 83.6193C530.317 83.6562 530.119 83.6908 529.92 83.7231C529.722 83.7508 529.542 83.7762 529.381 83.7993C529.035 83.85 528.732 83.9308 528.474 84.0415C528.216 84.1523 528.015 84.3022 527.872 84.4914C527.729 84.676 527.657 84.9067 527.657 85.1835C527.657 85.5849 527.803 85.8918 528.093 86.104C528.389 86.3117 528.762 86.4155 529.215 86.4155ZM539.593 74.0751V88.2496H536.644V74.0751H539.593ZM442.778 113.25H439.567L444.46 99.0751H448.322L453.208 113.25H449.997L446.446 102.314H446.336L442.778 113.25ZM442.577 107.678H450.163V110.017H442.577V107.678ZM463.457 105.65L460.757 105.816C460.711 105.586 460.612 105.378 460.46 105.193C460.308 105.004 460.107 104.854 459.858 104.743C459.613 104.628 459.32 104.57 458.979 104.57C458.522 104.57 458.137 104.667 457.823 104.861C457.509 105.05 457.352 105.304 457.352 105.622C457.352 105.876 457.454 106.091 457.657 106.266C457.86 106.441 458.208 106.582 458.702 106.688L460.626 107.076C461.66 107.288 462.43 107.63 462.938 108.1C463.445 108.571 463.699 109.189 463.699 109.955C463.699 110.652 463.494 111.263 463.083 111.789C462.677 112.315 462.119 112.726 461.408 113.021C460.702 113.312 459.888 113.457 458.965 113.457C457.558 113.457 456.436 113.164 455.601 112.578C454.771 111.988 454.284 111.185 454.141 110.17L457.041 110.017C457.128 110.447 457.341 110.774 457.678 111C458.014 111.222 458.446 111.332 458.972 111.332C459.489 111.332 459.904 111.233 460.218 111.035C460.536 110.832 460.697 110.571 460.702 110.253C460.697 109.985 460.584 109.766 460.363 109.595C460.141 109.42 459.8 109.286 459.339 109.194L457.498 108.827C456.459 108.619 455.687 108.259 455.179 107.747C454.676 107.235 454.425 106.582 454.425 105.789C454.425 105.106 454.609 104.517 454.978 104.024C455.352 103.53 455.876 103.149 456.549 102.882C457.228 102.614 458.021 102.48 458.93 102.48C460.273 102.48 461.33 102.764 462.1 103.332C462.875 103.899 463.328 104.672 463.457 105.65ZM474.401 105.65L471.702 105.816C471.655 105.586 471.556 105.378 471.404 105.193C471.252 105.004 471.051 104.854 470.802 104.743C470.557 104.628 470.264 104.57 469.923 104.57C469.466 104.57 469.081 104.667 468.767 104.861C468.453 105.05 468.296 105.304 468.296 105.622C468.296 105.876 468.398 106.091 468.601 106.266C468.804 106.441 469.152 106.582 469.646 106.688L471.57 107.076C472.604 107.288 473.374 107.63 473.882 108.1C474.389 108.571 474.643 109.189 474.643 109.955C474.643 110.652 474.438 111.263 474.027 111.789C473.621 112.315 473.063 112.726 472.352 113.021C471.646 113.312 470.832 113.457 469.909 113.457C468.502 113.457 467.38 113.164 466.545 112.578C465.715 111.988 465.228 111.185 465.085 110.17L467.985 110.017C468.073 110.447 468.285 110.774 468.622 111C468.958 111.222 469.39 111.332 469.916 111.332C470.433 111.332 470.848 111.233 471.162 111.035C471.48 110.832 471.642 110.571 471.646 110.253C471.642 109.985 471.528 109.766 471.307 109.595C471.086 109.42 470.744 109.286 470.283 109.194L468.442 108.827C467.403 108.619 466.631 108.259 466.123 107.747C465.62 107.235 465.369 106.582 465.369 105.789C465.369 105.106 465.553 104.517 465.922 104.024C466.296 103.53 466.82 103.149 467.493 102.882C468.172 102.614 468.965 102.48 469.874 102.48C471.217 102.48 472.274 102.764 473.044 103.332C473.819 103.899 474.272 104.672 474.401 105.65ZM481.303 113.457C480.228 113.457 479.298 113.229 478.514 112.772C477.734 112.311 477.132 111.669 476.707 110.848C476.283 110.022 476.07 109.065 476.07 107.976C476.07 106.878 476.283 105.918 476.707 105.096C477.132 104.271 477.734 103.629 478.514 103.172C479.298 102.711 480.228 102.48 481.303 102.48C482.378 102.48 483.305 102.711 484.085 103.172C484.87 103.629 485.474 104.271 485.899 105.096C486.323 105.918 486.535 106.878 486.535 107.976C486.535 109.065 486.323 110.022 485.899 110.848C485.474 111.669 484.87 112.311 484.085 112.772C483.305 113.229 482.378 113.457 481.303 113.457ZM481.317 111.173C481.806 111.173 482.214 111.035 482.542 110.758C482.869 110.477 483.116 110.094 483.282 109.609C483.453 109.125 483.538 108.573 483.538 107.955C483.538 107.337 483.453 106.785 483.282 106.301C483.116 105.816 482.869 105.433 482.542 105.152C482.214 104.87 481.806 104.73 481.317 104.73C480.823 104.73 480.408 104.87 480.071 105.152C479.739 105.433 479.487 105.816 479.317 106.301C479.15 106.785 479.067 107.337 479.067 107.955C479.067 108.573 479.15 109.125 479.317 109.609C479.487 110.094 479.739 110.477 480.071 110.758C480.408 111.035 480.823 111.173 481.317 111.173ZM493.256 113.457C492.167 113.457 491.23 113.227 490.446 112.765C489.666 112.299 489.066 111.653 488.646 110.827C488.231 110.001 488.023 109.051 488.023 107.976C488.023 106.887 488.233 105.932 488.653 105.11C489.078 104.284 489.68 103.641 490.46 103.179C491.239 102.713 492.167 102.48 493.242 102.48C494.169 102.48 494.981 102.649 495.678 102.986C496.375 103.322 496.926 103.795 497.332 104.404C497.738 105.013 497.962 105.729 498.004 106.55H495.221C495.143 106.019 494.935 105.592 494.598 105.269C494.266 104.942 493.83 104.778 493.29 104.778C492.834 104.778 492.434 104.903 492.093 105.152C491.756 105.396 491.493 105.754 491.304 106.225C491.115 106.695 491.02 107.265 491.02 107.934C491.02 108.612 491.112 109.189 491.297 109.664C491.486 110.14 491.751 110.502 492.093 110.751C492.434 111 492.834 111.125 493.29 111.125C493.627 111.125 493.929 111.056 494.197 110.917C494.469 110.779 494.693 110.578 494.868 110.315C495.048 110.047 495.166 109.727 495.221 109.353H498.004C497.957 110.165 497.736 110.88 497.339 111.499C496.947 112.112 496.405 112.592 495.713 112.938C495.021 113.284 494.202 113.457 493.256 113.457ZM499.891 113.25V102.619H502.84V113.25H499.891ZM501.372 101.248C500.934 101.248 500.558 101.103 500.244 100.812C499.935 100.517 499.781 100.164 499.781 99.7533C499.781 99.3473 499.935 98.9989 500.244 98.7082C500.558 98.4129 500.934 98.2653 501.372 98.2653C501.811 98.2653 502.185 98.4129 502.494 98.7082C502.807 98.9989 502.964 99.3473 502.964 99.7533C502.964 100.164 502.807 100.517 502.494 100.812C502.185 101.103 501.811 101.248 501.372 101.248ZM508.233 113.45C507.555 113.45 506.95 113.333 506.42 113.097C505.889 112.857 505.469 112.504 505.16 112.038C504.856 111.568 504.703 110.982 504.703 110.28C504.703 109.69 504.812 109.194 505.029 108.792C505.245 108.391 505.541 108.068 505.914 107.823C506.288 107.579 506.713 107.394 507.188 107.27C507.668 107.145 508.171 107.057 508.697 107.007C509.315 106.942 509.813 106.882 510.192 106.827C510.57 106.767 510.845 106.679 511.015 106.564C511.186 106.448 511.271 106.278 511.271 106.052V106.01C511.271 105.572 511.133 105.233 510.856 104.993C510.584 104.753 510.196 104.633 509.693 104.633C509.163 104.633 508.741 104.75 508.427 104.986C508.113 105.216 507.905 105.507 507.804 105.858L505.077 105.636C505.215 104.99 505.488 104.432 505.894 103.961C506.3 103.486 506.823 103.122 507.465 102.868C508.111 102.609 508.858 102.48 509.707 102.48C510.298 102.48 510.863 102.549 511.403 102.688C511.947 102.826 512.43 103.041 512.849 103.332C513.274 103.622 513.608 103.996 513.853 104.453C514.098 104.905 514.22 105.447 514.22 106.079V113.25H511.424V111.775H511.341C511.17 112.108 510.942 112.401 510.655 112.654C510.369 112.904 510.026 113.1 509.624 113.243C509.223 113.381 508.759 113.45 508.233 113.45ZM509.077 111.415C509.511 111.415 509.894 111.33 510.226 111.159C510.559 110.984 510.819 110.749 511.008 110.453C511.198 110.158 511.292 109.824 511.292 109.45V108.322C511.2 108.382 511.073 108.437 510.912 108.488C510.755 108.534 510.577 108.578 510.379 108.619C510.18 108.656 509.982 108.691 509.783 108.723C509.585 108.751 509.405 108.776 509.244 108.799C508.897 108.85 508.595 108.931 508.337 109.042C508.078 109.152 507.878 109.302 507.735 109.491C507.592 109.676 507.52 109.907 507.52 110.184C507.52 110.585 507.666 110.892 507.956 111.104C508.252 111.312 508.625 111.415 509.077 111.415ZM522.162 102.619V104.833H515.76V102.619H522.162ZM517.213 100.072H520.162V109.983C520.162 110.255 520.203 110.467 520.286 110.62C520.369 110.767 520.485 110.871 520.632 110.931C520.785 110.991 520.96 111.021 521.158 111.021C521.297 111.021 521.435 111.009 521.574 110.986C521.712 110.959 521.818 110.938 521.892 110.924L522.356 113.118C522.208 113.164 522 113.217 521.733 113.277C521.465 113.342 521.14 113.381 520.757 113.395C520.046 113.423 519.423 113.328 518.888 113.111C518.358 112.894 517.945 112.557 517.649 112.101C517.354 111.644 517.209 111.067 517.213 110.37V100.072ZM524.082 113.25V102.619H527.031V113.25H524.082ZM525.564 101.248C525.125 101.248 524.749 101.103 524.435 100.812C524.126 100.517 523.972 100.164 523.972 99.7533C523.972 99.3473 524.126 98.9989 524.435 98.7082C524.749 98.4129 525.125 98.2653 525.564 98.2653C526.002 98.2653 526.376 98.4129 526.685 98.7082C526.999 98.9989 527.155 99.3473 527.155 99.7533C527.155 100.164 526.999 100.517 526.685 100.812C526.376 101.103 526.002 101.248 525.564 101.248ZM534.196 113.457C533.121 113.457 532.191 113.229 531.407 112.772C530.627 112.311 530.025 111.669 529.6 110.848C529.176 110.022 528.964 109.065 528.964 107.976C528.964 106.878 529.176 105.918 529.6 105.096C530.025 104.271 530.627 103.629 531.407 103.172C532.191 102.711 533.121 102.48 534.196 102.48C535.271 102.48 536.199 102.711 536.978 103.172C537.763 103.629 538.367 104.271 538.792 105.096C539.216 105.918 539.428 106.878 539.428 107.976C539.428 109.065 539.216 110.022 538.792 110.848C538.367 111.669 537.763 112.311 536.978 112.772C536.199 113.229 535.271 113.457 534.196 113.457ZM534.21 111.173C534.699 111.173 535.107 111.035 535.435 110.758C535.762 110.477 536.009 110.094 536.175 109.609C536.346 109.125 536.432 108.573 536.432 107.955C536.432 107.337 536.346 106.785 536.175 106.301C536.009 105.816 535.762 105.433 535.435 105.152C535.107 104.87 534.699 104.73 534.21 104.73C533.716 104.73 533.301 104.87 532.964 105.152C532.632 105.433 532.38 105.816 532.21 106.301C532.044 106.785 531.96 107.337 531.96 107.955C531.96 108.573 532.044 109.125 532.21 109.609C532.38 110.094 532.632 110.477 532.964 110.758C533.301 111.035 533.716 111.173 534.21 111.173ZM544.294 107.104V113.25H541.346V102.619H544.156V104.494H544.28C544.515 103.876 544.91 103.387 545.464 103.027C546.017 102.663 546.689 102.48 547.478 102.48C548.216 102.48 548.86 102.642 549.409 102.965C549.958 103.288 550.385 103.749 550.689 104.349C550.994 104.944 551.146 105.655 551.146 106.481V113.25H548.197V107.007C548.202 106.356 548.036 105.849 547.699 105.484C547.362 105.115 546.899 104.93 546.308 104.93C545.911 104.93 545.561 105.016 545.256 105.186C544.956 105.357 544.721 105.606 544.55 105.934C544.384 106.257 544.299 106.647 544.294 107.104ZM562.315 105.65L559.616 105.816C559.569 105.586 559.47 105.378 559.318 105.193C559.166 105.004 558.965 104.854 558.716 104.743C558.471 104.628 558.178 104.57 557.837 104.57C557.38 104.57 556.995 104.667 556.681 104.861C556.367 105.05 556.21 105.304 556.21 105.622C556.21 105.876 556.312 106.091 556.515 106.266C556.718 106.441 557.066 106.582 557.56 106.688L559.484 107.076C560.518 107.288 561.288 107.63 561.796 108.1C562.303 108.571 562.557 109.189 562.557 109.955C562.557 110.652 562.352 111.263 561.941 111.789C561.535 112.315 560.977 112.726 560.266 113.021C559.56 113.312 558.746 113.457 557.823 113.457C556.416 113.457 555.295 113.164 554.459 112.578C553.629 111.988 553.142 111.185 552.999 110.17L555.899 110.017C555.987 110.447 556.199 110.774 556.536 111C556.873 111.222 557.304 111.332 557.83 111.332C558.347 111.332 558.762 111.233 559.076 111.035C559.394 110.832 559.556 110.571 559.56 110.253C559.556 109.985 559.443 109.766 559.221 109.595C559 109.42 558.658 109.286 558.197 109.194L556.356 108.827C555.318 108.619 554.545 108.259 554.037 107.747C553.534 107.235 553.283 106.582 553.283 105.789C553.283 105.106 553.467 104.517 553.836 104.024C554.21 103.53 554.734 103.149 555.408 102.882C556.086 102.614 556.879 102.48 557.788 102.48C559.131 102.48 560.188 102.764 560.958 103.332C561.734 103.899 562.186 104.672 562.315 105.65Z" fill="#4D4D4D"/>
</g>
<g filter="url(#filter2_d_211_2088)">
<rect x="693.981" y="8.42688" width="208.125" height="182.097" rx="5.56856" fill="white" shape-rendering="crispEdges"/>
<path d="M820.666 51.5832C820.666 58.5029 815.056 64.1124 808.137 64.1124L789.343 64.1124C787.421 64.1124 785.862 62.5542 785.862 60.6321L785.862 36.9657C785.862 33.1214 788.979 30.005 792.823 30.005L817.186 30.005C819.108 30.005 820.666 31.5632 820.666 33.4854L820.666 51.5832Z" fill="#E8F5E9"/>
<path d="M795.128 41.5909C794.961 41.5909 794.805 41.5448 794.667 41.4707V41.4727C794.667 41.7364 794.564 41.984 794.378 42.1695C794.192 42.3555 793.945 42.458 793.682 42.458C793.511 42.458 793.354 42.4107 793.214 42.3346C793.2 42.5759 793.104 42.8014 792.932 42.9736C792.746 43.1595 792.498 43.262 792.235 43.262C791.711 43.262 791.286 42.8504 791.255 42.3345C791.093 42.422 790.91 42.468 790.721 42.4558C790.206 42.422 789.802 41.977 789.802 41.4423V37.0107L789.298 37.8849C789.106 38.2193 788.746 38.4269 788.358 38.4269C788.17 38.4269 787.983 38.3774 787.818 38.2828C787.612 38.1636 787.465 37.9722 787.404 37.7432C787.343 37.5141 787.374 37.2745 787.493 37.0692C787.494 37.0692 789.144 34.2103 789.245 34.0347C789.257 34.0083 789.291 33.9317 789.32 33.8664C789.348 33.8041 789.372 33.7402 789.395 33.6759C789.892 32.2703 791.125 31.3972 792.612 31.3972C794.543 31.3972 796.113 33.1004 796.113 35.194L796.113 40.6055C796.113 40.8689 796.011 41.1163 795.825 41.3025C795.639 41.4884 795.392 41.5909 795.128 41.5909L795.128 41.5909ZM792.612 31.9208C791.334 31.9208 790.316 32.6424 789.888 33.851C789.861 33.9277 789.832 34.0045 789.799 34.0793C789.702 34.2959 789.702 34.2959 789.675 34.327L789.671 34.3239C789.537 34.5783 789.136 35.2718 787.947 37.3312C787.898 37.4157 787.885 37.5138 787.91 37.6076C787.935 37.7014 787.996 37.7804 788.079 37.8288C788.339 37.9782 788.696 37.8817 788.844 37.6235L789.838 35.9032C789.897 35.8007 790.017 35.7503 790.132 35.7815C790.247 35.8121 790.326 35.916 790.326 36.0344V41.4425C790.326 41.6977 790.519 41.9179 790.755 41.9335C790.892 41.9407 791.019 41.8949 791.115 41.7995C791.201 41.7126 791.249 41.5968 791.249 41.473V37.936C791.249 37.7913 791.367 37.6741 791.511 37.6741C791.656 37.6741 791.773 37.7912 791.773 37.936L791.773 42.2769C791.773 42.5315 791.98 42.7386 792.235 42.7386C792.358 42.7386 792.474 42.6907 792.561 42.6038C792.648 42.5167 792.696 42.4006 792.696 42.2769V37.936C792.696 37.7913 792.813 37.6741 792.958 37.6741C793.103 37.6741 793.22 37.7912 793.22 37.936L793.22 41.4323V41.473C793.22 41.7273 793.427 41.9344 793.682 41.9344C793.805 41.9344 793.921 41.8864 794.009 41.7991C794.095 41.7124 794.143 41.5966 794.143 41.4728V37.9358C794.143 37.7912 794.26 37.6739 794.405 37.6739C794.55 37.6739 794.667 37.791 794.667 37.9358L794.667 40.6056C794.667 40.8603 794.874 41.0674 795.128 41.0674C795.252 41.0674 795.368 41.0194 795.455 40.9326C795.542 40.8454 795.59 40.7293 795.59 40.6056L795.59 35.1941C795.59 33.3894 794.254 31.9208 792.612 31.9208L792.612 31.9208Z" fill="#103E13"/>
<path d="M784.839 45.352L788.639 43.0722C789.097 42.797 789.687 42.9139 789.981 43.3385C790.088 43.4932 790.143 43.6734 790.151 43.8569C790.293 43.7829 790.447 43.7428 790.604 43.7428C790.684 43.7428 790.765 43.7528 790.845 43.7726C791.1 43.8364 791.315 43.996 791.45 44.2216C791.586 44.4476 791.625 44.7124 791.562 44.9675C791.503 45.2034 791.359 45.4021 791.16 45.5383C791.299 45.6207 791.42 45.733 791.505 45.876C791.641 46.102 791.68 46.3667 791.617 46.622C791.553 46.877 791.393 47.0922 791.167 47.2278L791.166 47.2286C791.303 47.3108 791.421 47.422 791.506 47.5629C791.641 47.7888 791.681 48.0537 791.617 48.309C791.553 48.5642 791.394 48.7793 791.168 48.9148L786.528 51.6986C785.662 52.218 784.661 52.3972 783.709 52.2029C782.749 52.0067 781.954 51.4549 781.471 50.649C780.706 49.374 780.82 47.8676 781.769 46.7178C781.813 46.6653 781.855 46.6119 781.894 46.5564C781.935 46.4979 781.984 46.429 782 46.4054C782.098 46.2299 783.701 43.342 783.701 43.3423C783.863 43.0503 784.166 42.8849 784.479 42.8851C784.625 42.8851 784.773 42.921 784.91 42.9968C785.075 43.089 785.213 43.2233 785.31 43.3851C785.509 43.7172 785.516 44.1328 785.329 44.4691L784.839 45.352ZM784.861 43.6543C784.811 43.5696 784.741 43.502 784.655 43.4541C784.479 43.3564 784.256 43.42 784.159 43.596C783.012 45.6623 782.621 46.3665 782.47 46.617L782.474 46.6179C782.461 46.6598 782.461 46.6598 782.323 46.8571C782.276 46.9239 782.225 46.988 782.173 47.0511C781.357 48.0398 781.262 49.2841 781.919 50.3797C782.326 51.0583 782.999 51.5235 783.814 51.6898C784.637 51.8572 785.505 51.7015 786.258 51.2495L790.899 48.4656C791.005 48.4021 791.08 48.3013 791.109 48.1817C791.139 48.0623 791.121 47.9382 791.057 47.8323C790.926 47.6141 790.642 47.5425 790.424 47.6738L788.135 49.0473C788.011 49.1217 787.85 49.0817 787.775 48.9576C787.701 48.8336 787.741 48.6727 787.865 48.5983L790.154 47.2248L790.898 46.7788C791.004 46.7151 791.079 46.6143 791.109 46.4951C791.139 46.3755 791.12 46.2512 791.056 46.1454C790.925 45.9272 790.641 45.8561 790.423 45.987L787.39 47.8065C787.266 47.8811 787.105 47.8408 787.031 47.7168C786.956 47.5928 786.997 47.432 787.121 47.3575L790.843 45.1244C790.949 45.0608 791.024 44.9601 791.054 44.8406C791.083 44.7212 791.065 44.597 791.001 44.4911C790.938 44.3853 790.837 44.3105 790.718 44.2807C790.597 44.2509 790.474 44.2694 790.368 44.3327L789.679 44.7461C789.679 44.7461 789.679 44.7463 789.679 44.7463H789.679L786.646 46.5658C786.521 46.6406 786.361 46.6002 786.286 46.4761C786.212 46.3521 786.252 46.1912 786.376 46.1168L789.409 44.2973C789.515 44.2336 789.59 44.1328 789.62 44.0136C789.653 43.8827 789.628 43.7489 789.55 43.6367C789.415 43.4417 789.127 43.3899 788.908 43.5213L784.271 46.3032C784.169 46.3639 784.039 46.3492 783.954 46.267C783.869 46.1847 783.85 46.0553 783.907 45.9518L784.872 44.2145C784.968 44.0408 784.964 43.8263 784.861 43.6544L784.861 43.6543Z" fill="#103E13"/>
<path d="M802.998 50.6489C802.515 51.4549 801.72 52.0066 800.76 52.2027C799.808 52.3967 798.808 52.2178 797.941 51.6984L793.301 48.9145C793.075 48.7791 792.915 48.5639 792.851 48.3084C792.788 48.0534 792.827 47.7885 792.963 47.5629C793.047 47.4218 793.165 47.3106 793.303 47.2285L793.301 47.2277C793.076 47.0922 792.916 46.877 792.852 46.6219C792.788 46.3667 792.828 46.1017 792.963 45.8757C793.051 45.7306 793.17 45.6171 793.307 45.5366C793.109 45.4003 792.966 45.2024 792.907 44.9675C792.843 44.7122 792.883 44.4473 793.018 44.2217C793.154 43.9958 793.369 43.8363 793.624 43.7725C793.704 43.7525 793.785 43.7426 793.865 43.7426C794.022 43.7428 794.176 43.7827 794.318 43.8568C794.326 43.6733 794.381 43.493 794.488 43.3384C794.782 42.9142 795.371 42.7967 795.83 43.0721L799.63 45.3516L799.141 44.4693C798.953 44.1324 798.96 43.7169 799.159 43.3846C799.256 43.2229 799.395 43.0886 799.56 42.9956C799.697 42.9202 799.844 42.8844 799.99 42.8844C800.303 42.8846 800.606 43.0496 800.768 43.3417C801.332 44.357 802.395 46.2717 802.47 46.4054C802.486 46.4285 802.534 46.4974 802.575 46.5559C802.614 46.6115 802.656 46.6647 802.7 46.7175C803.649 47.8677 803.763 49.374 802.998 50.6489L802.998 50.6489ZM802.296 47.0512C802.244 46.9881 802.193 46.9236 802.146 46.8572C802.004 46.6562 802.001 46.6509 801.99 46.5983C801.825 46.3242 801.42 45.5968 800.31 43.5957C800.212 43.4201 799.991 43.356 799.815 43.4534C799.728 43.5019 799.658 43.5696 799.607 43.6544C799.504 43.8261 799.5 44.0406 799.598 44.2148L800.562 45.9516C800.619 46.0553 800.6 46.1845 800.515 46.2668C800.43 46.3493 800.3 46.3638 800.198 46.3031L795.561 43.5211C795.342 43.3901 795.054 43.4414 794.919 43.6365C794.841 43.7487 794.816 43.8825 794.849 44.0132C794.879 44.1326 794.954 44.2333 795.06 44.2969C795.06 44.2971 795.06 44.2974 795.061 44.2976L798.093 46.1166C798.217 46.1911 798.257 46.3518 798.182 46.4759C798.108 46.5997 797.947 46.6402 797.823 46.5656L794.101 44.3325C793.995 44.2692 793.871 44.2505 793.751 44.2806C793.632 44.3104 793.531 44.3852 793.467 44.4913C793.404 44.5971 793.385 44.7212 793.415 44.8406C793.445 44.96 793.52 45.0608 793.626 45.1245L794.35 45.5589L797.348 47.3576C797.472 47.432 797.512 47.5927 797.438 47.7169C797.363 47.8407 797.203 47.881 797.078 47.8066L794.046 45.9871C793.827 45.8559 793.543 45.9271 793.412 46.1455C793.349 46.2514 793.33 46.3756 793.36 46.495C793.39 46.6143 793.465 46.715 793.571 46.7788L794.314 47.2249L796.603 48.5983C796.727 48.6728 796.768 48.8335 796.693 48.9576C796.619 49.0815 796.458 49.1221 796.334 49.0473L794.045 47.6739C793.939 47.6106 793.815 47.5919 793.695 47.6219C793.576 47.6518 793.475 47.7265 793.411 47.8323C793.348 47.9383 793.329 48.0626 793.359 48.1818C793.389 48.3012 793.464 48.4019 793.57 48.4657L798.21 51.2496C798.963 51.7014 799.832 51.8578 800.655 51.6899C801.469 51.5236 802.142 51.0583 802.549 50.3797C803.207 49.2839 803.112 48.0396 802.296 47.0512L802.296 47.0512Z" fill="#103E13"/>
<path d="M762.267 86.0375H759.236C759.181 85.6453 759.067 85.297 758.897 84.9924C758.726 84.6833 758.507 84.4203 758.239 84.2034C757.972 83.9866 757.662 83.8205 757.312 83.7051C756.966 83.5898 756.59 83.5321 756.184 83.5321C755.45 83.5321 754.811 83.7143 754.267 84.0788C753.722 84.4387 753.3 84.9648 753 85.6569C752.7 86.3444 752.55 87.1795 752.55 88.1623C752.55 89.1728 752.7 90.0218 753 90.7093C753.304 91.3968 753.729 91.9159 754.273 92.2666C754.818 92.6172 755.448 92.7926 756.163 92.7926C756.564 92.7926 756.936 92.7395 757.277 92.6334C757.623 92.5273 757.93 92.3727 758.198 92.1697C758.465 91.962 758.687 91.7106 758.862 91.4153C759.042 91.12 759.167 90.7831 759.236 90.4048L762.267 90.4186C762.189 91.0692 761.993 91.6967 761.679 92.3012C761.37 92.901 760.952 93.4385 760.426 93.9138C759.905 94.3844 759.282 94.7582 758.558 95.035C757.838 95.3072 757.023 95.4434 756.114 95.4434C754.85 95.4434 753.72 95.1573 752.723 94.5851C751.731 94.013 750.947 93.1848 750.37 92.1005C749.798 91.0161 749.512 89.7034 749.512 88.1623C749.512 86.6166 749.802 85.3016 750.384 84.2173C750.965 83.133 751.754 82.307 752.751 81.7395C753.747 81.1673 754.869 80.8813 756.114 80.8813C756.936 80.8813 757.697 80.9966 758.398 81.2273C759.104 81.458 759.73 81.7949 760.274 82.2378C760.819 82.6762 761.261 83.2137 761.603 83.8504C761.949 84.4872 762.17 85.2162 762.267 86.0375ZM767.309 81.0751V95.2496H764.361V81.0751H767.309ZM776.489 90.7231V84.6187H779.437V95.2496H776.606V93.3186H776.495C776.256 93.9415 775.856 94.4421 775.298 94.8205C774.744 95.1988 774.068 95.388 773.27 95.388C772.56 95.388 771.934 95.2265 771.395 94.9035C770.855 94.5805 770.433 94.1214 770.128 93.5262C769.828 92.931 769.676 92.2181 769.671 91.3876V84.6187H772.62V90.8616C772.624 91.4891 772.793 91.9851 773.125 92.3496C773.457 92.7141 773.902 92.8964 774.461 92.8964C774.816 92.8964 775.148 92.8156 775.457 92.6541C775.766 92.488 776.016 92.2435 776.205 91.9205C776.399 91.5975 776.493 91.1984 776.489 90.7231ZM781.851 95.2496V81.0751H784.799V86.4043H784.889C785.018 86.1183 785.205 85.8276 785.45 85.5323C785.699 85.2324 786.022 84.9832 786.419 84.7848C786.82 84.5818 787.318 84.4803 787.914 84.4803C788.689 84.4803 789.404 84.6833 790.059 85.0893C790.714 85.4908 791.238 86.0975 791.63 86.9096C792.023 87.7171 792.219 88.7299 792.219 89.948C792.219 91.1338 792.027 92.1351 791.644 92.9518C791.266 93.7638 790.749 94.3798 790.094 94.7997C789.443 95.215 788.714 95.4226 787.907 95.4226C787.335 95.4226 786.848 95.328 786.446 95.1388C786.05 94.9497 785.724 94.712 785.47 94.426C785.217 94.1353 785.023 93.8423 784.889 93.547H784.758V95.2496H781.851ZM784.737 89.9341C784.737 90.5663 784.825 91.1176 785 91.5883C785.175 92.0589 785.429 92.4257 785.761 92.6887C786.093 92.9471 786.497 93.0763 786.972 93.0763C787.452 93.0763 787.858 92.9448 788.19 92.6818C788.523 92.4142 788.774 92.0451 788.945 91.5744C789.12 91.0992 789.208 90.5524 789.208 89.9341C789.208 89.3205 789.123 88.7806 788.952 88.3146C788.781 87.8486 788.53 87.484 788.197 87.221C787.865 86.958 787.457 86.8265 786.972 86.8265C786.493 86.8265 786.086 86.9534 785.754 87.2072C785.427 87.461 785.175 87.8209 785 88.2869C784.825 88.7529 784.737 89.302 784.737 89.9341ZM803.031 87.6502L800.332 87.8163C800.286 87.5856 800.187 87.3779 800.034 87.1934C799.882 87.0042 799.681 86.8542 799.432 86.7435C799.188 86.6281 798.895 86.5705 798.553 86.5705C798.096 86.5705 797.711 86.6674 797.397 86.8611C797.084 87.0503 796.927 87.3041 796.927 87.6225C796.927 87.8762 797.028 88.0908 797.231 88.2661C797.434 88.4415 797.783 88.5822 798.276 88.6883L800.2 89.0759C801.234 89.2882 802.005 89.6296 802.512 90.1002C803.02 90.5709 803.273 91.1892 803.273 91.9551C803.273 92.6518 803.068 93.2632 802.657 93.7892C802.251 94.3152 801.693 94.7259 800.982 95.0212C800.277 95.3119 799.462 95.4572 798.539 95.4572C797.132 95.4572 796.011 95.1642 795.176 94.5782C794.345 93.9876 793.858 93.1848 793.715 92.1697L796.615 92.0174C796.703 92.4465 796.915 92.7741 797.252 93.0002C797.589 93.2217 798.02 93.3324 798.546 93.3324C799.063 93.3324 799.478 93.2332 799.792 93.0348C800.11 92.8318 800.272 92.5711 800.277 92.2527C800.272 91.9851 800.159 91.7659 799.937 91.5952C799.716 91.4199 799.374 91.2861 798.913 91.1938L797.072 90.827C796.034 90.6193 795.261 90.2594 794.753 89.7473C794.251 89.2351 793.999 88.5822 793.999 87.7886C793.999 87.1057 794.184 86.5174 794.553 86.0237C794.926 85.53 795.45 85.1493 796.124 84.8817C796.802 84.6141 797.596 84.4803 798.505 84.4803C799.847 84.4803 800.904 84.764 801.675 85.3316C802.45 85.8991 802.902 86.672 803.031 87.6502ZM812.139 95.2496H808.928L813.821 81.0751H817.683L822.57 95.2496H819.358L815.808 84.3142H815.697L812.139 95.2496ZM811.939 89.6781H819.524V92.0174H811.939V89.6781ZM827.169 89.1036V95.2496H824.22V84.6187H827.03V86.4943H827.155C827.39 85.876 827.785 85.3869 828.338 85.027C828.892 84.6625 829.563 84.4803 830.352 84.4803C831.091 84.4803 831.734 84.6418 832.283 84.9648C832.832 85.2877 833.259 85.7491 833.564 86.349C833.868 86.9442 834.021 87.6548 834.021 88.4807V95.2496H831.072V89.0067C831.077 88.3561 830.911 87.8486 830.574 87.484C830.237 87.1149 829.773 86.9304 829.183 86.9304C828.786 86.9304 828.435 87.0157 828.131 87.1864C827.831 87.3572 827.595 87.6063 827.425 87.9339C827.259 88.2569 827.173 88.6468 827.169 89.1036ZM840.262 95.4226C839.454 95.4226 838.723 95.215 838.068 94.7997C837.417 94.3798 836.9 93.7638 836.517 92.9518C836.139 92.1351 835.95 91.1338 835.95 89.948C835.95 88.7299 836.146 87.7171 836.538 86.9096C836.93 86.0975 837.452 85.4908 838.102 85.0893C838.758 84.6833 839.475 84.4803 840.255 84.4803C840.85 84.4803 841.346 84.5818 841.743 84.7848C842.144 84.9832 842.467 85.2324 842.712 85.5323C842.961 85.8276 843.15 86.1183 843.279 86.4043H843.369V81.0751H846.311V95.2496H843.404V93.547H843.279C843.141 93.8423 842.945 94.1353 842.691 94.426C842.442 94.712 842.117 94.9497 841.715 95.1388C841.318 95.328 840.834 95.4226 840.262 95.4226ZM841.196 93.0763C841.671 93.0763 842.073 92.9471 842.4 92.6887C842.733 92.4257 842.986 92.0589 843.162 91.5883C843.342 91.1176 843.432 90.5663 843.432 89.9341C843.432 89.302 843.344 88.7529 843.169 88.2869C842.993 87.8209 842.74 87.461 842.407 87.2072C842.075 86.9534 841.671 86.8265 841.196 86.8265C840.712 86.8265 840.303 86.958 839.971 87.221C839.639 87.484 839.387 87.8486 839.217 88.3146C839.046 88.7806 838.961 89.3205 838.961 89.9341C838.961 90.5524 839.046 91.0992 839.217 91.5744C839.392 92.0451 839.643 92.4142 839.971 92.6818C840.303 92.9448 840.712 93.0763 841.196 93.0763ZM773.844 110.657C773.747 110.32 773.611 110.022 773.435 109.764C773.26 109.501 773.046 109.28 772.792 109.1C772.543 108.915 772.257 108.774 771.934 108.677C771.615 108.581 771.262 108.532 770.875 108.532C770.15 108.532 769.513 108.712 768.964 109.072C768.42 109.432 767.995 109.956 767.691 110.643C767.386 111.326 767.234 112.161 767.234 113.148C767.234 114.136 767.384 114.976 767.684 115.668C767.984 116.36 768.408 116.888 768.957 117.253C769.507 117.613 770.155 117.793 770.902 117.793C771.581 117.793 772.16 117.673 772.64 117.433C773.124 117.188 773.493 116.844 773.747 116.401C774.005 115.958 774.135 115.435 774.135 114.83L774.744 114.92H771.089V112.664H777.021V114.45C777.021 115.695 776.758 116.766 776.232 117.661C775.706 118.552 774.981 119.239 774.058 119.724C773.136 120.203 772.079 120.443 770.888 120.443C769.56 120.443 768.392 120.15 767.386 119.564C766.381 118.974 765.596 118.136 765.033 117.052C764.475 115.963 764.196 114.671 764.196 113.176C764.196 112.027 764.362 111.003 764.694 110.103C765.031 109.199 765.502 108.433 766.106 107.805C766.71 107.178 767.414 106.7 768.217 106.373C769.02 106.045 769.89 105.881 770.826 105.881C771.629 105.881 772.377 105.999 773.069 106.234C773.761 106.465 774.374 106.793 774.91 107.217C775.45 107.642 775.89 108.147 776.232 108.733C776.573 109.314 776.792 109.956 776.889 110.657H773.844ZM779.216 120.25V109.619H782.075V111.474H782.186C782.379 110.814 782.705 110.315 783.161 109.979C783.618 109.637 784.144 109.466 784.739 109.466C784.887 109.466 785.046 109.476 785.217 109.494C785.388 109.513 785.538 109.538 785.667 109.57V112.186C785.528 112.145 785.337 112.108 785.092 112.076C784.848 112.043 784.624 112.027 784.421 112.027C783.987 112.027 783.6 112.122 783.258 112.311C782.921 112.496 782.654 112.754 782.455 113.086C782.262 113.418 782.165 113.801 782.165 114.235V120.25H779.216ZM791.5 120.457C790.425 120.457 789.495 120.229 788.71 119.772C787.931 119.311 787.329 118.669 786.904 117.848C786.48 117.022 786.267 116.065 786.267 114.976C786.267 113.878 786.48 112.918 786.904 112.096C787.329 111.271 787.931 110.629 788.71 110.172C789.495 109.711 790.425 109.48 791.5 109.48C792.575 109.48 793.502 109.711 794.282 110.172C795.066 110.629 795.671 111.271 796.095 112.096C796.52 112.918 796.732 113.878 796.732 114.976C796.732 116.065 796.52 117.022 796.095 117.848C795.671 118.669 795.066 119.311 794.282 119.772C793.502 120.229 792.575 120.457 791.5 120.457ZM791.514 118.173C792.003 118.173 792.411 118.035 792.739 117.758C793.066 117.477 793.313 117.094 793.479 116.609C793.65 116.125 793.735 115.573 793.735 114.955C793.735 114.337 793.65 113.785 793.479 113.301C793.313 112.816 793.066 112.433 792.739 112.152C792.411 111.87 792.003 111.73 791.514 111.73C791.02 111.73 790.605 111.87 790.268 112.152C789.935 112.433 789.684 112.816 789.513 113.301C789.347 113.785 789.264 114.337 789.264 114.955C789.264 115.573 789.347 116.125 789.513 116.609C789.684 117.094 789.935 117.477 790.268 117.758C790.605 118.035 791.02 118.173 791.514 118.173ZM805.467 115.723V109.619H808.415V120.25H805.584V118.319H805.473C805.234 118.941 804.834 119.442 804.276 119.82C803.722 120.199 803.046 120.388 802.248 120.388C801.538 120.388 800.912 120.227 800.373 119.904C799.833 119.581 799.411 119.121 799.106 118.526C798.806 117.931 798.654 117.218 798.649 116.388V109.619H801.598V115.862C801.602 116.489 801.771 116.985 802.103 117.35C802.435 117.714 802.88 117.896 803.439 117.896C803.794 117.896 804.126 117.816 804.435 117.654C804.744 117.488 804.994 117.243 805.183 116.921C805.377 116.598 805.471 116.198 805.467 115.723ZM810.773 124.236V109.619H813.68V111.404H813.812C813.941 111.118 814.128 110.828 814.372 110.532C814.621 110.232 814.944 109.983 815.341 109.785C815.743 109.582 816.241 109.48 816.836 109.48C817.611 109.48 818.327 109.683 818.982 110.089C819.637 110.491 820.161 111.098 820.553 111.91C820.945 112.717 821.141 113.73 821.141 114.948C821.141 116.134 820.95 117.135 820.567 117.952C820.188 118.764 819.672 119.38 819.016 119.8C818.366 120.215 817.637 120.423 816.829 120.423C816.257 120.423 815.77 120.328 815.369 120.139C814.972 119.95 814.647 119.712 814.393 119.426C814.139 119.135 813.946 118.842 813.812 118.547H813.722V124.236H810.773ZM813.659 114.934C813.659 115.566 813.747 116.118 813.922 116.588C814.098 117.059 814.352 117.426 814.684 117.689C815.016 117.947 815.42 118.076 815.895 118.076C816.375 118.076 816.781 117.945 817.113 117.682C817.445 117.414 817.697 117.045 817.868 116.574C818.043 116.099 818.131 115.552 818.131 114.934C818.131 114.32 818.045 113.781 817.874 113.315C817.704 112.849 817.452 112.484 817.12 112.221C816.788 111.958 816.379 111.827 815.895 111.827C815.415 111.827 815.009 111.953 814.677 112.207C814.349 112.461 814.098 112.821 813.922 113.287C813.747 113.753 813.659 114.302 813.659 114.934ZM831.952 112.65L829.253 112.816C829.207 112.586 829.107 112.378 828.955 112.193C828.803 112.004 828.602 111.854 828.353 111.743C828.108 111.628 827.815 111.57 827.474 111.57C827.017 111.57 826.632 111.667 826.318 111.861C826.004 112.05 825.848 112.304 825.848 112.622C825.848 112.876 825.949 113.091 826.152 113.266C826.355 113.441 826.703 113.582 827.197 113.688L829.121 114.076C830.155 114.288 830.925 114.63 831.433 115.1C831.94 115.571 832.194 116.189 832.194 116.955C832.194 117.652 831.989 118.263 831.578 118.789C831.172 119.315 830.614 119.726 829.903 120.021C829.197 120.312 828.383 120.457 827.46 120.457C826.053 120.457 824.932 120.164 824.097 119.578C823.266 118.988 822.779 118.185 822.636 117.17L825.536 117.017C825.624 117.447 825.836 117.774 826.173 118C826.51 118.222 826.941 118.332 827.467 118.332C827.984 118.332 828.399 118.233 828.713 118.035C829.031 117.832 829.193 117.571 829.197 117.253C829.193 116.985 829.08 116.766 828.858 116.595C828.637 116.42 828.295 116.286 827.834 116.194L825.993 115.827C824.955 115.619 824.182 115.259 823.674 114.747C823.171 114.235 822.92 113.582 822.92 112.789C822.92 112.106 823.105 111.517 823.474 111.024C823.847 110.53 824.371 110.149 825.045 109.882C825.723 109.614 826.517 109.48 827.426 109.48C828.768 109.48 829.825 109.764 830.595 110.332C831.371 110.899 831.823 111.672 831.952 112.65Z" fill="#4D4D4D"/>
</g>
<defs>
<filter id="filter0_d_211_2088" x="97.4497" y="7.03474" width="213.693" height="187.665" filterUnits="userSpaceOnUse" color-interpolation-filters="sRGB">
<feFlood flood-opacity="0" result="BackgroundImageFix"/>
<feColorMatrix in="SourceAlpha" type="matrix" values="0 0 0 0 0 0 0 0 0 0 0 0 0 0 0 0 0 0 127 0" result="hardAlpha"/>
<feOffset dy="1.39214"/>
<feGaussianBlur stdDeviation="1.39214"/>
<feComposite in2="hardAlpha" operator="out"/>
<feColorMatrix type="matrix" values="0 0 0 0 0.670588 0 0 0 0 0.745098 0 0 0 0 0.819608 0 0 0 0.2 0"/>
<feBlend mode="normal" in2="BackgroundImageFix" result="effect1_dropShadow_211_2088"/>
<feBlend mode="normal" in="SourceGraphic" in2="effect1_dropShadow_211_2088" result="shape"/>
</filter>
<filter id="filter1_d_211_2088" x="394.323" y="0.0347409" width="213.693" height="201.665" filterUnits="userSpaceOnUse" color-interpolation-filters="sRGB">
<feFlood flood-opacity="0" result="BackgroundImageFix"/>
<feColorMatrix in="SourceAlpha" type="matrix" values="0 0 0 0 0 0 0 0 0 0 0 0 0 0 0 0 0 0 127 0" result="hardAlpha"/>
<feOffset dy="1.39214"/>
<feGaussianBlur stdDeviation="1.39214"/>
<feComposite in2="hardAlpha" operator="out"/>
<feColorMatrix type="matrix" values="0 0 0 0 0.670588 0 0 0 0 0.745098 0 0 0 0 0.819608 0 0 0 0.2 0"/>
<feBlend mode="normal" in2="BackgroundImageFix" result="effect1_dropShadow_211_2088"/>
<feBlend mode="normal" in="SourceGraphic" in2="effect1_dropShadow_211_2088" result="shape"/>
</filter>
<filter id="filter2_d_211_2088" x="691.197" y="7.03474" width="213.693" height="187.665" filterUnits="userSpaceOnUse" color-interpolation-filters="sRGB">
<feFlood flood-opacity="0" result="BackgroundImageFix"/>
<feColorMatrix in="SourceAlpha" type="matrix" values="0 0 0 0 0 0 0 0 0 0 0 0 0 0 0 0 0 0 127 0" result="hardAlpha"/>
<feOffset dy="1.39214"/>
<feGaussianBlur stdDeviation="1.39214"/>
<feComposite in2="hardAlpha" operator="out"/>
<feColorMatrix type="matrix" values="0 0 0 0 0.670588 0 0 0 0 0.745098 0 0 0 0 0.819608 0 0 0 0.2 0"/>
<feBlend mode="normal" in2="BackgroundImageFix" result="effect1_dropShadow_211_2088"/>
<feBlend mode="normal" in="SourceGraphic" in2="effect1_dropShadow_211_2088" result="shape"/>
</filter>
</defs>
</svg>
